<?xml version="1.0" encoding="utf-8" ?>
<svg baseProfile="full" height="900" version="1.1" viewBox="0 0 1400 900" width="1400" xmlns="http://www.w3.org/2000/svg" xmlns:ev="http://www.w3.org/2001/xml-events" xmlns:xlink="http://www.w3.org/1999/xlink"><defs><marker id="arrow" markerHeight="10" markerWidth="10" orient="auto" refX="10" refY="5"><path d="M 0 0 L 10 5 L 0 10 z" fill="#1d2737" /></marker><marker id="arrow_white" markerHeight="10" markerWidth="10" orient="auto" refX="10" refY="5"><path d="M 0 0 L 10 5 L 0 10 z" fill="white" /></marker><marker id="dot" markerHeight="8" markerWidth="8" orient="auto" refX="4" refY="4"><circle cx="4" cy="4" fill="#1d2737" r="3" /></marker></defs><rect fill="#0b1736" height="900" width="1400" x="0" y="0" /><text fill="white" font-family="DejaVu Sans, Arial, sans-serif" font-size="34" font-weight="700" x="50" y="60">Рис. 5. Токосъём на 360–400 км/ч</text><text fill="#cfd6e2" font-family="DejaVu Sans, Arial, sans-serif" font-size="18" x="50" y="95">Пантограф возбуждает волну в проводе; допустимые отрывы при высокой скорости считаются уже миллисекундами.</text><line stroke="white" stroke-width="4" x1="130" x2="1270" y1="230" y2="230" /><line stroke="#94a3b8" stroke-width="2" x1="180" x2="180" y1="180" y2="230" /><line stroke="#94a3b8" stroke-width="2" x1="310" x2="310" y1="180" y2="230" /><line stroke="#94a3b8" stroke-width="2" x1="440" x2="440" y1="180" y2="230" /><line stroke="#94a3b8" stroke-width="2" x1="570" x2="570" y1="180" y2="230" /><line stroke="#94a3b8" stroke-width="2" x1="700" x2="700" y1="180" y2="230" /><line stroke="#94a3b8" stroke-width="2" x1="830" x2="830" y1="180" y2="230" /><line stroke="#94a3b8" stroke-width="2" x1="960" x2="960" y1="180" y2="230" /><line stroke="#94a3b8" stroke-width="2" x1="1090" x2="1090" y1="180" y2="230" /><line stroke="#94a3b8" stroke-width="2" x1="1220" x2="1220" y1="180" y2="230" /><path d="M 150.0,230.0 L 151.0,230.1 L 152.0,230.3 L 153.0,230.4 L 154.0,230.6 L 155.0,230.7 L 156.0,230.9 L 157.0,231.0 L 158.0,231.1 L 159.0,231.3 L 160.0,231.4 L 161.0,231.6 L 162.0,231.7 L 163.0,231.8 L 164.0,232.0 L 165.0,232.1 L 166.0,232.3 L 167.0,232.4 L 168.0,232.5 L 169.0,232.7 L 170.0,232.8 L 171.0,233.0 L 172.0,233.1 L 173.0,233.2 L 174.0,233.4 L 175.0,233.5 L 176.0,233.6 L 177.0,233.8 L 178.0,233.9 L 179.0,234.0 L 180.0,234.2 L 181.0,234.3 L 182.0,234.4 L 183.0,234.5 L 184.0,234.7 L 185.0,234.8 L 186.0,234.9 L 187.0,235.0 L 188.0,235.2 L 189.0,235.3 L 190.0,235.4 L 191.0,235.5 L 192.0,235.6 L 193.0,235.8 L 194.0,235.9 L 195.0,236.0 L 196.0,236.1 L 197.0,236.2 L 198.0,236.3 L 199.0,236.4 L 200.0,236.6 L 201.0,236.7 L 202.0,236.8 L 203.0,236.9 L 204.0,237.0 L 205.0,237.1 L 206.0,237.2 L 207.0,237.3 L 208.0,237.4 L 209.0,237.5 L 210.0,237.6 L 211.0,237.7 L 212.0,237.7 L 213.0,237.8 L 214.0,237.9 L 215.0,238.0 L 216.0,238.1 L 217.0,238.2 L 218.0,238.3 L 219.0,238.3 L 220.0,238.4 L 221.0,238.5 L 222.0,238.6 L 223.0,238.6 L 224.0,238.7 L 225.0,238.8 L 226.0,238.8 L 227.0,238.9 L 228.0,239.0 L 229.0,239.0 L 230.0,239.1 L 231.0,239.2 L 232.0,239.2 L 233.0,239.3 L 234.0,239.3 L 235.0,239.4 L 236.0,239.4 L 237.0,239.5 L 238.0,239.5 L 239.0,239.6 L 240.0,239.6 L 241.0,239.6 L 242.0,239.7 L 243.0,239.7 L 244.0,239.7 L 245.0,239.8 L 246.0,239.8 L 247.0,239.8 L 248.0,239.9 L 249.0,239.9 L 250.0,239.9 L 251.0,239.9 L 252.0,239.9 L 253.0,240.0 L 254.0,240.0 L 255.0,240.0 L 256.0,240.0 L 257.0,240.0 L 258.0,240.0 L 259.0,240.0 L 260.0,240.0 L 261.0,240.0 L 262.0,240.0 L 263.0,240.0 L 264.0,240.0 L 265.0,240.0 L 266.0,240.0 L 267.0,239.9 L 268.0,239.9 L 269.0,239.9 L 270.0,239.9 L 271.0,239.9 L 272.0,239.9 L 273.0,239.8 L 274.0,239.8 L 275.0,239.8 L 276.0,239.7 L 277.0,239.7 L 278.0,239.7 L 279.0,239.6 L 280.0,239.6 L 281.0,239.6 L 282.0,239.5 L 283.0,239.5 L 284.0,239.4 L 285.0,239.4 L 286.0,239.3 L 287.0,239.3 L 288.0,239.2 L 289.0,239.2 L 290.0,239.1 L 291.0,239.0 L 292.0,239.0 L 293.0,238.9 L 294.0,238.8 L 295.0,238.8 L 296.0,238.7 L 297.0,238.6 L 298.0,238.6 L 299.0,238.5 L 300.0,238.4 L 301.0,238.3 L 302.0,238.2 L 303.0,238.2 L 304.0,238.1 L 305.0,238.0 L 306.0,237.9 L 307.0,237.8 L 308.0,237.7 L 309.0,237.6 L 310.0,237.6 L 311.0,237.5 L 312.0,237.4 L 313.0,237.3 L 314.0,237.2 L 315.0,237.1 L 316.0,237.0 L 317.0,236.9 L 318.0,236.8 L 319.0,236.6 L 320.0,236.5 L 321.0,236.4 L 322.0,236.3 L 323.0,236.2 L 324.0,236.1 L 325.0,236.0 L 326.0,235.9 L 327.0,235.8 L 328.0,235.6 L 329.0,235.5 L 330.0,235.4 L 331.0,235.3 L 332.0,235.2 L 333.0,235.0 L 334.0,234.9 L 335.0,234.8 L 336.0,234.7 L 337.0,234.5 L 338.0,234.4 L 339.0,234.3 L 340.0,234.1 L 341.0,234.0 L 342.0,233.9 L 343.0,233.8 L 344.0,233.6 L 345.0,233.5 L 346.0,233.3 L 347.0,233.2 L 348.0,233.1 L 349.0,232.9 L 350.0,232.8 L 351.0,232.7 L 352.0,232.5 L 353.0,232.4 L 354.0,232.3 L 355.0,232.1 L 356.0,232.0 L 357.0,231.8 L 358.0,231.7 L 359.0,231.6 L 360.0,231.4 L 361.0,231.3 L 362.0,231.1 L 363.0,231.0 L 364.0,230.8 L 365.0,230.7 L 366.0,230.6 L 367.0,230.4 L 368.0,230.3 L 369.0,230.1 L 370.0,230.0 L 371.0,229.8 L 372.0,229.7 L 373.0,229.6 L 374.0,229.4 L 375.0,229.3 L 376.0,229.1 L 377.0,229.0 L 378.0,228.8 L 379.0,228.7 L 380.0,228.6 L 381.0,228.4 L 382.0,228.3 L 383.0,228.1 L 384.0,228.0 L 385.0,227.9 L 386.0,227.7 L 387.0,227.6 L 388.0,227.4 L 389.0,227.3 L 390.0,227.2 L 391.0,227.0 L 392.0,226.9 L 393.0,226.8 L 394.0,226.6 L 395.0,226.5 L 396.0,226.4 L 397.0,226.2 L 398.0,226.1 L 399.0,226.0 L 400.0,225.8 L 401.0,225.7 L 402.0,225.6 L 403.0,225.4 L 404.0,225.3 L 405.0,225.2 L 406.0,225.1 L 407.0,224.9 L 408.0,224.8 L 409.0,224.7 L 410.0,224.6 L 411.0,224.5 L 412.0,224.3 L 413.0,224.2 L 414.0,224.1 L 415.0,224.0 L 416.0,223.9 L 417.0,223.8 L 418.0,223.7 L 419.0,223.5 L 420.0,223.4 L 421.0,223.3 L 422.0,223.2 L 423.0,223.1 L 424.0,223.0 L 425.0,222.9 L 426.0,222.8 L 427.0,222.7 L 428.0,222.6 L 429.0,222.5 L 430.0,222.4 L 431.0,222.3 L 432.0,222.2 L 433.0,222.2 L 434.0,222.1 L 435.0,222.0 L 436.0,221.9 L 437.0,221.8 L 438.0,221.7 L 439.0,221.7 L 440.0,221.6 L 441.0,221.5 L 442.0,221.4 L 443.0,221.4 L 444.0,221.3 L 445.0,221.2 L 446.0,221.1 L 447.0,221.1 L 448.0,221.0 L 449.0,221.0 L 450.0,220.9 L 451.0,220.8 L 452.0,220.8 L 453.0,220.7 L 454.0,220.7 L 455.0,220.6 L 456.0,220.6 L 457.0,220.5 L 458.0,220.5 L 459.0,220.4 L 460.0,220.4 L 461.0,220.4 L 462.0,220.3 L 463.0,220.3 L 464.0,220.3 L 465.0,220.2 L 466.0,220.2 L 467.0,220.2 L 468.0,220.1 L 469.0,220.1 L 470.0,220.1 L 471.0,220.1 L 472.0,220.1 L 473.0,220.0 L 474.0,220.0 L 475.0,220.0 L 476.0,220.0 L 477.0,220.0 L 478.0,220.0 L 479.0,220.0 L 480.0,220.0 L 481.0,220.0 L 482.0,220.0 L 483.0,220.0 L 484.0,220.0 L 485.0,220.0 L 486.0,220.0 L 487.0,220.1 L 488.0,220.1 L 489.0,220.1 L 490.0,220.1 L 491.0,220.1 L 492.0,220.1 L 493.0,220.2 L 494.0,220.2 L 495.0,220.2 L 496.0,220.3 L 497.0,220.3 L 498.0,220.3 L 499.0,220.4 L 500.0,220.4 L 501.0,220.5 L 502.0,220.5 L 503.0,220.5 L 504.0,220.6 L 505.0,220.6 L 506.0,220.7 L 507.0,220.7 L 508.0,220.8 L 509.0,220.9 L 510.0,220.9 L 511.0,221.0 L 512.0,221.0 L 513.0,221.1 L 514.0,221.2 L 515.0,221.2 L 516.0,221.3 L 517.0,221.4 L 518.0,221.4 L 519.0,221.5 L 520.0,221.6 L 521.0,221.7 L 522.0,221.8 L 523.0,221.8 L 524.0,221.9 L 525.0,222.0 L 526.0,222.1 L 527.0,222.2 L 528.0,222.3 L 529.0,222.4 L 530.0,222.5 L 531.0,222.6 L 532.0,222.6 L 533.0,222.7 L 534.0,222.8 L 535.0,222.9 L 536.0,223.0 L 537.0,223.1 L 538.0,223.3 L 539.0,223.4 L 540.0,223.5 L 541.0,223.6 L 542.0,223.7 L 543.0,223.8 L 544.0,223.9 L 545.0,224.0 L 546.0,224.1 L 547.0,224.3 L 548.0,224.4 L 549.0,224.5 L 550.0,224.6 L 551.0,224.7 L 552.0,224.9 L 553.0,225.0 L 554.0,225.1 L 555.0,225.2 L 556.0,225.4 L 557.0,225.5 L 558.0,225.6 L 559.0,225.7 L 560.0,225.9 L 561.0,226.0 L 562.0,226.1 L 563.0,226.3 L 564.0,226.4 L 565.0,226.5 L 566.0,226.7 L 567.0,226.8 L 568.0,226.9 L 569.0,227.1 L 570.0,227.2 L 571.0,227.3 L 572.0,227.5 L 573.0,227.6 L 574.0,227.8 L 575.0,227.9 L 576.0,228.0 L 577.0,228.2 L 578.0,228.3 L 579.0,228.5 L 580.0,228.6 L 581.0,228.7 L 582.0,228.9 L 583.0,229.0 L 584.0,229.2 L 585.0,229.3 L 586.0,229.5 L 587.0,229.6 L 588.0,229.7 L 589.0,229.9 L 590.0,230.0 L 591.0,230.2 L 592.0,230.3 L 593.0,230.5 L 594.0,230.6 L 595.0,230.7 L 596.0,230.9 L 597.0,231.0 L 598.0,231.2 L 599.0,231.3 L 600.0,231.4 L 601.0,231.6 L 602.0,231.7 L 603.0,231.9 L 604.0,232.0 L 605.0,232.2 L 606.0,232.3 L 607.0,232.4 L 608.0,232.6 L 609.0,232.7 L 610.0,232.8 L 611.0,233.0 L 612.0,233.1 L 613.0,233.3 L 614.0,233.4 L 615.0,233.5 L 616.0,233.7 L 617.0,233.8 L 618.0,233.9 L 619.0,234.0 L 620.0,234.2 L 621.0,234.3 L 622.0,234.4 L 623.0,234.6 L 624.0,234.7 L 625.0,234.8 L 626.0,234.9 L 627.0,235.1 L 628.0,235.2 L 629.0,235.3 L 630.0,235.4 L 631.0,235.5 L 632.0,235.7 L 633.0,235.8 L 634.0,235.9 L 635.0,236.0 L 636.0,236.1 L 637.0,236.2 L 638.0,236.4 L 639.0,236.5 L 640.0,236.6 L 641.0,236.7 L 642.0,236.8 L 643.0,236.9 L 644.0,237.0 L 645.0,237.1 L 646.0,237.2 L 647.0,237.3 L 648.0,237.4 L 649.0,237.5 L 650.0,237.6 L 651.0,237.7 L 652.0,237.8 L 653.0,237.8 L 654.0,237.9 L 655.0,238.0 L 656.0,238.1 L 657.0,238.2 L 658.0,238.3 L 659.0,238.4 L 660.0,238.4 L 661.0,238.5 L 662.0,238.6 L 663.0,238.7 L 664.0,238.7 L 665.0,238.8 L 666.0,238.9 L 667.0,238.9 L 668.0,239.0 L 669.0,239.0 L 670.0,239.1 L 671.0,239.2 L 672.0,239.2 L 673.0,239.3 L 674.0,239.3 L 675.0,239.4 L 676.0,239.4 L 677.0,239.5 L 678.0,239.5 L 679.0,239.6 L 680.0,239.6 L 681.0,239.6 L 682.0,239.7 L 683.0,239.7 L 684.0,239.7 L 685.0,239.8 L 686.0,239.8 L 687.0,239.8 L 688.0,239.9 L 689.0,239.9 L 690.0,239.9 L 691.0,239.9 L 692.0,239.9 L 693.0,240.0 L 694.0,240.0 L 695.0,240.0 L 696.0,240.0 L 697.0,240.0 L 698.0,240.0 L 699.0,240.0 L 700.0,240.0 L 701.0,240.0 L 702.0,240.0 L 703.0,240.0 L 704.0,240.0 L 705.0,240.0 L 706.0,240.0 L 707.0,239.9 L 708.0,239.9 L 709.0,239.9 L 710.0,239.9 L 711.0,239.9 L 712.0,239.8 L 713.0,239.8 L 714.0,239.8 L 715.0,239.8 L 716.0,239.7 L 717.0,239.7 L 718.0,239.7 L 719.0,239.6 L 720.0,239.6 L 721.0,239.5 L 722.0,239.5 L 723.0,239.5 L 724.0,239.4 L 725.0,239.4 L 726.0,239.3 L 727.0,239.3 L 728.0,239.2 L 729.0,239.1 L 730.0,239.1 L 731.0,239.0 L 732.0,239.0 L 733.0,238.9 L 734.0,238.8 L 735.0,238.8 L 736.0,238.7 L 737.0,238.6 L 738.0,238.5 L 739.0,238.5 L 740.0,238.4 L 741.0,238.3 L 742.0,238.2 L 743.0,238.2 L 744.0,238.1 L 745.0,238.0 L 746.0,237.9 L 747.0,237.8 L 748.0,237.7 L 749.0,237.6 L 750.0,237.5 L 751.0,237.4 L 752.0,237.3 L 753.0,237.2 L 754.0,237.1 L 755.0,237.0 L 756.0,236.9 L 757.0,236.8 L 758.0,236.7 L 759.0,236.6 L 760.0,236.5 L 761.0,236.4 L 762.0,236.3 L 763.0,236.2 L 764.0,236.1 L 765.0,236.0 L 766.0,235.8 L 767.0,235.7 L 768.0,235.6 L 769.0,235.5 L 770.0,235.4 L 771.0,235.3 L 772.0,235.1 L 773.0,235.0 L 774.0,234.9 L 775.0,234.8 L 776.0,234.6 L 777.0,234.5 L 778.0,234.4 L 779.0,234.3 L 780.0,234.1 L 781.0,234.0 L 782.0,233.9 L 783.0,233.7 L 784.0,233.6 L 785.0,233.5 L 786.0,233.3 L 787.0,233.2 L 788.0,233.1 L 789.0,232.9 L 790.0,232.8 L 791.0,232.6 L 792.0,232.5 L 793.0,232.4 L 794.0,232.2 L 795.0,232.1 L 796.0,231.9 L 797.0,231.8 L 798.0,231.7 L 799.0,231.5 L 800.0,231.4 L 801.0,231.2 L 802.0,231.1 L 803.0,231.0 L 804.0,230.8 L 805.0,230.7 L 806.0,230.5 L 807.0,230.4 L 808.0,230.2 L 809.0,230.1 L 810.0,230.0 L 811.0,229.8 L 812.0,229.7 L 813.0,229.5 L 814.0,229.4 L 815.0,229.2 L 816.0,229.1 L 817.0,229.0 L 818.0,228.8 L 819.0,228.7 L 820.0,228.5 L 821.0,228.4 L 822.0,228.3 L 823.0,228.1 L 824.0,228.0 L 825.0,227.8 L 826.0,227.7 L 827.0,227.6 L 828.0,227.4 L 829.0,227.3 L 830.0,227.1 L 831.0,227.0 L 832.0,226.9 L 833.0,226.7 L 834.0,226.6 L 835.0,226.5 L 836.0,226.3 L 837.0,226.2 L 838.0,226.1 L 839.0,225.9 L 840.0,225.8 L 841.0,225.7 L 842.0,225.6 L 843.0,225.4 L 844.0,225.3 L 845.0,225.2 L 846.0,225.0 L 847.0,224.9 L 848.0,224.8 L 849.0,224.7 L 850.0,224.6 L 851.0,224.4 L 852.0,224.3 L 853.0,224.2 L 854.0,224.1 L 855.0,224.0 L 856.0,223.9 L 857.0,223.7 L 858.0,223.6 L 859.0,223.5 L 860.0,223.4 L 861.0,223.3 L 862.0,223.2 L 863.0,223.1 L 864.0,223.0 L 865.0,222.9 L 866.0,222.8 L 867.0,222.7 L 868.0,222.6 L 869.0,222.5 L 870.0,222.4 L 871.0,222.3 L 872.0,222.2 L 873.0,222.1 L 874.0,222.1 L 875.0,222.0 L 876.0,221.9 L 877.0,221.8 L 878.0,221.7 L 879.0,221.6 L 880.0,221.6 L 881.0,221.5 L 882.0,221.4 L 883.0,221.3 L 884.0,221.3 L 885.0,221.2 L 886.0,221.1 L 887.0,221.1 L 888.0,221.0 L 889.0,220.9 L 890.0,220.9 L 891.0,220.8 L 892.0,220.8 L 893.0,220.7 L 894.0,220.7 L 895.0,220.6 L 896.0,220.6 L 897.0,220.5 L 898.0,220.5 L 899.0,220.4 L 900.0,220.4 L 901.0,220.4 L 902.0,220.3 L 903.0,220.3 L 904.0,220.3 L 905.0,220.2 L 906.0,220.2 L 907.0,220.2 L 908.0,220.1 L 909.0,220.1 L 910.0,220.1 L 911.0,220.1 L 912.0,220.1 L 913.0,220.0 L 914.0,220.0 L 915.0,220.0 L 916.0,220.0 L 917.0,220.0 L 918.0,220.0 L 919.0,220.0 L 920.0,220.0 L 921.0,220.0 L 922.0,220.0 L 923.0,220.0 L 924.0,220.0 L 925.0,220.0 L 926.0,220.0 L 927.0,220.1 L 928.0,220.1 L 929.0,220.1 L 930.0,220.1 L 931.0,220.1 L 932.0,220.2 L 933.0,220.2 L 934.0,220.2 L 935.0,220.2 L 936.0,220.3 L 937.0,220.3 L 938.0,220.3 L 939.0,220.4 L 940.0,220.4 L 941.0,220.5 L 942.0,220.5 L 943.0,220.5 L 944.0,220.6 L 945.0,220.6 L 946.0,220.7 L 947.0,220.8 L 948.0,220.8 L 949.0,220.9 L 950.0,220.9 L 951.0,221.0 L 952.0,221.0 L 953.0,221.1 L 954.0,221.2 L 955.0,221.2 L 956.0,221.3 L 957.0,221.4 L 958.0,221.5 L 959.0,221.5 L 960.0,221.6 L 961.0,221.7 L 962.0,221.8 L 963.0,221.9 L 964.0,221.9 L 965.0,222.0 L 966.0,222.1 L 967.0,222.2 L 968.0,222.3 L 969.0,222.4 L 970.0,222.5 L 971.0,222.6 L 972.0,222.7 L 973.0,222.8 L 974.0,222.9 L 975.0,223.0 L 976.0,223.1 L 977.0,223.2 L 978.0,223.3 L 979.0,223.4 L 980.0,223.5 L 981.0,223.6 L 982.0,223.7 L 983.0,223.8 L 984.0,223.9 L 985.0,224.0 L 986.0,224.2 L 987.0,224.3 L 988.0,224.4 L 989.0,224.5 L 990.0,224.6 L 991.0,224.8 L 992.0,224.9 L 993.0,225.0 L 994.0,225.1 L 995.0,225.3 L 996.0,225.4 L 997.0,225.5 L 998.0,225.6 L 999.0,225.8 L 1000.0,225.9 L 1001.0,226.0 L 1002.0,226.2 L 1003.0,226.3 L 1004.0,226.4 L 1005.0,226.6 L 1006.0,226.7 L 1007.0,226.8 L 1008.0,227.0 L 1009.0,227.1 L 1010.0,227.2 L 1011.0,227.4 L 1012.0,227.5 L 1013.0,227.6 L 1014.0,227.8 L 1015.0,227.9 L 1016.0,228.1 L 1017.0,228.2 L 1018.0,228.3 L 1019.0,228.5 L 1020.0,228.6 L 1021.0,228.8 L 1022.0,228.9 L 1023.0,229.1 L 1024.0,229.2 L 1025.0,229.3 L 1026.0,229.5 L 1027.0,229.6 L 1028.0,229.8 L 1029.0,229.9 L 1030.0,230.1 L 1031.0,230.2 L 1032.0,230.3 L 1033.0,230.5 L 1034.0,230.6 L 1035.0,230.8 L 1036.0,230.9 L 1037.0,231.0 L 1038.0,231.2 L 1039.0,231.3 L 1040.0,231.5 L 1041.0,231.6 L 1042.0,231.8 L 1043.0,231.9 L 1044.0,232.0 L 1045.0,232.2 L 1046.0,232.3 L 1047.0,232.5 L 1048.0,232.6 L 1049.0,232.7 L 1050.0,232.9 L 1051.0,233.0 L 1052.0,233.1 L 1053.0,233.3 L 1054.0,233.4 L 1055.0,233.5 L 1056.0,233.7 L 1057.0,233.8 L 1058.0,233.9 L 1059.0,234.1 L 1060.0,234.2 L 1061.0,234.3 L 1062.0,234.5 L 1063.0,234.6 L 1064.0,234.7 L 1065.0,234.8 L 1066.0,235.0 L 1067.0,235.1 L 1068.0,235.2 L 1069.0,235.3 L 1070.0,235.5 L 1071.0,235.6 L 1072.0,235.7 L 1073.0,235.8 L 1074.0,235.9 L 1075.0,236.0 L 1076.0,236.1 L 1077.0,236.3 L 1078.0,236.4 L 1079.0,236.5 L 1080.0,236.6 L 1081.0,236.7 L 1082.0,236.8 L 1083.0,236.9 L 1084.0,237.0 L 1085.0,237.1 L 1086.0,237.2 L 1087.0,237.3 L 1088.0,237.4 L 1089.0,237.5 L 1090.0,237.6 L 1091.0,237.7 L 1092.0,237.8 L 1093.0,237.9 L 1094.0,238.0 L 1095.0,238.0 L 1096.0,238.1 L 1097.0,238.2 L 1098.0,238.3 L 1099.0,238.4 L 1100.0,238.4 L 1101.0,238.5 L 1102.0,238.6 L 1103.0,238.7 L 1104.0,238.7 L 1105.0,238.8 L 1106.0,238.9 L 1107.0,238.9 L 1108.0,239.0 L 1109.0,239.1 L 1110.0,239.1 L 1111.0,239.2 L 1112.0,239.2 L 1113.0,239.3 L 1114.0,239.3 L 1115.0,239.4 L 1116.0,239.4 L 1117.0,239.5 L 1118.0,239.5 L 1119.0,239.6 L 1120.0,239.6 L 1121.0,239.6 L 1122.0,239.7 L 1123.0,239.7 L 1124.0,239.8 L 1125.0,239.8 L 1126.0,239.8 L 1127.0,239.8 L 1128.0,239.9 L 1129.0,239.9 L 1130.0,239.9 L 1131.0,239.9 L 1132.0,239.9 L 1133.0,240.0 L 1134.0,240.0 L 1135.0,240.0 L 1136.0,240.0 L 1137.0,240.0 L 1138.0,240.0 L 1139.0,240.0 L 1140.0,240.0 L 1141.0,240.0 L 1142.0,240.0 L 1143.0,240.0 L 1144.0,240.0 L 1145.0,240.0 L 1146.0,240.0 L 1147.0,239.9 L 1148.0,239.9 L 1149.0,239.9 L 1150.0,239.9 L 1151.0,239.9 L 1152.0,239.8 L 1153.0,239.8 L 1154.0,239.8 L 1155.0,239.8 L 1156.0,239.7 L 1157.0,239.7 L 1158.0,239.7 L 1159.0,239.6 L 1160.0,239.6 L 1161.0,239.5 L 1162.0,239.5 L 1163.0,239.4 L 1164.0,239.4 L 1165.0,239.3 L 1166.0,239.3 L 1167.0,239.2 L 1168.0,239.2 L 1169.0,239.1 L 1170.0,239.1 L 1171.0,239.0 L 1172.0,238.9 L 1173.0,238.9 L 1174.0,238.8 L 1175.0,238.7 L 1176.0,238.7 L 1177.0,238.6 L 1178.0,238.5 L 1179.0,238.5 L 1180.0,238.4 L 1181.0,238.3 L 1182.0,238.2 L 1183.0,238.1 L 1184.0,238.1 L 1185.0,238.0 L 1186.0,237.9 L 1187.0,237.8 L 1188.0,237.7 L 1189.0,237.6 L 1190.0,237.5 L 1191.0,237.4 L 1192.0,237.3 L 1193.0,237.2 L 1194.0,237.1 L 1195.0,237.0 L 1196.0,236.9 L 1197.0,236.8 L 1198.0,236.7 L 1199.0,236.6 L 1200.0,236.5 L 1201.0,236.4 L 1202.0,236.3 L 1203.0,236.2 L 1204.0,236.1 L 1205.0,235.9 L 1206.0,235.8 L 1207.0,235.7 L 1208.0,235.6 L 1209.0,235.5 L 1210.0,235.4 L 1211.0,235.2 L 1212.0,235.1 L 1213.0,235.0 L 1214.0,234.9 L 1215.0,234.7 L 1216.0,234.6 L 1217.0,234.5 L 1218.0,234.4 L 1219.0,234.2 L 1220.0,234.1 L 1221.0,234.0 L 1222.0,233.8 L 1223.0,233.7 L 1224.0,233.6 L 1225.0,233.4 L 1226.0,233.3 L 1227.0,233.2 L 1228.0,233.0 L 1229.0,232.9 L 1230.0,232.8 L 1231.0,232.6 L 1232.0,232.5 L 1233.0,232.3 L 1234.0,232.2 L 1235.0,232.1 L 1236.0,231.9 L 1237.0,231.8 L 1238.0,231.6 L 1239.0,231.5 L 1240.0,231.4 L 1241.0,231.2 L 1242.0,231.1 L 1243.0,230.9 L 1244.0,230.8 L 1245.0,230.7 L 1246.0,230.5 L 1247.0,230.4 L 1248.0,230.2 L 1249.0,230.1" fill="none" stroke="#fbbf24" stroke-width="4" /><rect fill="#e5e7eb" height="90" rx="25" stroke="#94a3b8" stroke-width="2" width="1040" x="180" y="570" /><rect fill="#bae6fd" height="22" rx="4" width="64" x="300" y="595" /><rect fill="#bae6fd" height="22" rx="4" width="64" x="450" y="595" /><rect fill="#bae6fd" height="22" rx="4" width="64" x="600" y="595" /><rect fill="#bae6fd" height="22" rx="4" width="64" x="750" y="595" /><rect fill="#bae6fd" height="22" rx="4" width="64" x="900" y="595" /><line stroke="#ff4d4f" stroke-width="6" x1="620" x2="560" y1="565" y2="420" /><line stroke="#ff4d4f" stroke-width="6" x1="620" x2="690" y1="565" y2="420" /><line stroke="#ff4d4f" stroke-width="6" x1="560" x2="690" y1="420" y2="420" /><line stroke="#ff4d4f" stroke-width="6" x1="625" x2="625" y1="420" y2="255" /><line stroke="#ff4d4f" stroke-width="5" x1="590" x2="660" y1="255" y2="255" /><line marker-end="url(#arrow_white)" stroke="white" stroke-width="2.2" x1="890" x2="760" y1="285" y2="255" /><text fill="white" font-family="DejaVu Sans, Arial, sans-serif" font-size="16" text-anchor="start" x="780" y="247">контактный провод</text><line marker-end="url(#arrow_white)" stroke="white" stroke-width="2.2" x1="960" x2="810" y1="335" y2="240" /><text fill="white" font-family="DejaVu Sans, Arial, sans-serif" font-size="16" text-anchor="start" x="828" y="240">волна в контактной сети</text><line marker-end="url(#arrow_white)" stroke="white" stroke-width="2.2" x1="785" x2="690" y1="448" y2="420" /><text fill="white" font-family="DejaVu Sans, Arial, sans-serif" font-size="16" text-anchor="start" x="708" y="420">контактная сила</text><rect fill="#122449" height="110" rx="14" ry="14" stroke="#28406c" stroke-width="1.2" width="470" x="80" y="690" /><text fill="white" font-family="DejaVu Sans, Arial, sans-serif" font-size="16" x="98" y="718">Контрольный вопрос ТМ: 25 кВ 50 Гц или 2×25 кВ?</text><text fill="white" font-family="DejaVu Sans, Arial, sans-serif" font-size="16" x="98" y="738">однорычажный пантограф и допустимый отрыв 5–10 мс?</text><text fill="white" font-family="DejaVu Sans, Arial, sans-serif" font-size="16" x="98" y="758">диагностика провода и контактных вставок?</text><text fill="#b3bfd2" font-family="DejaVu Sans, Arial, sans-serif" font-size="14" x="50" y="872">Авторская схема. Не является проектом контактной сети; служит для читабельного объяснения динамики токосъёма.</text></svg>