<?xml version="1.0" encoding="utf-8" ?>
<svg baseProfile="full" height="900" version="1.1" viewBox="0 0 1600 900" width="1600" xmlns="http://www.w3.org/2000/svg" xmlns:ev="http://www.w3.org/2001/xml-events" xmlns:xlink="http://www.w3.org/1999/xlink"><defs><marker id="arrow" markerHeight="10" markerWidth="10" orient="auto" refX="10" refY="5"><path d="M 0 0 L 10 5 L 0 10 z" fill="#1f2937" /></marker><marker id="arrow_white" markerHeight="10" markerWidth="10" orient="auto" refX="10" refY="5"><path d="M 0 0 L 10 5 L 0 10 z" fill="#ffffff" /></marker><marker id="arrow_red" markerHeight="10" markerWidth="10" orient="auto" refX="10" refY="5"><path d="M 0 0 L 10 5 L 0 10 z" fill="#ef4444" /></marker><marker id="arrow_blue" markerHeight="10" markerWidth="10" orient="auto" refX="10" refY="5"><path d="M 0 0 L 10 5 L 0 10 z" fill="#2563eb" /></marker><marker id="arrow_green" markerHeight="10" markerWidth="10" orient="auto" refX="10" refY="5"><path d="M 0 0 L 10 5 L 0 10 z" fill="#22c55e" /></marker></defs><rect fill="#0b1736" height="900" width="1600" x="0" y="0" /><text fill="#ffffff" font-family="DejaVu Sans, Arial, sans-serif" font-size="38" font-weight="700" text-anchor="start" x="60" y="58">Рис. 5. Токосъём на 360–400 км/ч</text><text fill="#cbd5e1" font-family="DejaVu Sans, Arial, sans-serif" font-size="18" font-weight="normal" text-anchor="start" x="60" y="96">Пантограф возбуждает волну в проводе; допустимые отрывы считаются миллисекундами.</text><line stroke="#ffffff" stroke-width="4" x1="150" x2="1450" y1="230" y2="230" /><line stroke="#94a3b8" stroke-width="2" x1="220" x2="220" y1="175" y2="230" /><line stroke="#94a3b8" stroke-width="2" x1="370" x2="370" y1="175" y2="230" /><line stroke="#94a3b8" stroke-width="2" x1="520" x2="520" y1="175" y2="230" /><line stroke="#94a3b8" stroke-width="2" x1="670" x2="670" y1="175" y2="230" /><line stroke="#94a3b8" stroke-width="2" x1="820" x2="820" y1="175" y2="230" /><line stroke="#94a3b8" stroke-width="2" x1="970" x2="970" y1="175" y2="230" /><line stroke="#94a3b8" stroke-width="2" x1="1120" x2="1120" y1="175" y2="230" /><line stroke="#94a3b8" stroke-width="2" x1="1270" x2="1270" y1="175" y2="230" /><path d="M 180.0,230.0 L 181.0,230.2 L 182.0,230.3 L 183.0,230.5 L 184.0,230.6 L 185.0,230.8 L 186.0,231.0 L 187.0,231.1 L 188.0,231.3 L 189.0,231.4 L 190.0,231.6 L 191.0,231.8 L 192.0,231.9 L 193.0,232.1 L 194.0,232.2 L 195.0,232.4 L 196.0,232.5 L 197.0,232.7 L 198.0,232.9 L 199.0,233.0 L 200.0,233.2 L 201.0,233.3 L 202.0,233.5 L 203.0,233.6 L 204.0,233.8 L 205.0,233.9 L 206.0,234.1 L 207.0,234.2 L 208.0,234.4 L 209.0,234.5 L 210.0,234.7 L 211.0,234.8 L 212.0,235.0 L 213.0,235.1 L 214.0,235.3 L 215.0,235.4 L 216.0,235.5 L 217.0,235.7 L 218.0,235.8 L 219.0,236.0 L 220.0,236.1 L 221.0,236.2 L 222.0,236.4 L 223.0,236.5 L 224.0,236.6 L 225.0,236.8 L 226.0,236.9 L 227.0,237.0 L 228.0,237.2 L 229.0,237.3 L 230.0,237.4 L 231.0,237.5 L 232.0,237.7 L 233.0,237.8 L 234.0,237.9 L 235.0,238.0 L 236.0,238.2 L 237.0,238.3 L 238.0,238.4 L 239.0,238.5 L 240.0,238.6 L 241.0,238.7 L 242.0,238.8 L 243.0,238.9 L 244.0,239.0 L 245.0,239.1 L 246.0,239.2 L 247.0,239.3 L 248.0,239.4 L 249.0,239.5 L 250.0,239.6 L 251.0,239.7 L 252.0,239.8 L 253.0,239.9 L 254.0,240.0 L 255.0,240.1 L 256.0,240.2 L 257.0,240.3 L 258.0,240.3 L 259.0,240.4 L 260.0,240.5 L 261.0,240.6 L 262.0,240.7 L 263.0,240.7 L 264.0,240.8 L 265.0,240.9 L 266.0,240.9 L 267.0,241.0 L 268.0,241.1 L 269.0,241.1 L 270.0,241.2 L 271.0,241.2 L 272.0,241.3 L 273.0,241.3 L 274.0,241.4 L 275.0,241.4 L 276.0,241.5 L 277.0,241.5 L 278.0,241.6 L 279.0,241.6 L 280.0,241.7 L 281.0,241.7 L 282.0,241.7 L 283.0,241.8 L 284.0,241.8 L 285.0,241.8 L 286.0,241.9 L 287.0,241.9 L 288.0,241.9 L 289.0,241.9 L 290.0,241.9 L 291.0,242.0 L 292.0,242.0 L 293.0,242.0 L 294.0,242.0 L 295.0,242.0 L 296.0,242.0 L 297.0,242.0 L 298.0,242.0 L 299.0,242.0 L 300.0,242.0 L 301.0,242.0 L 302.0,242.0 L 303.0,242.0 L 304.0,242.0 L 305.0,241.9 L 306.0,241.9 L 307.0,241.9 L 308.0,241.9 L 309.0,241.9 L 310.0,241.8 L 311.0,241.8 L 312.0,241.8 L 313.0,241.8 L 314.0,241.7 L 315.0,241.7 L 316.0,241.6 L 317.0,241.6 L 318.0,241.6 L 319.0,241.5 L 320.0,241.5 L 321.0,241.4 L 322.0,241.4 L 323.0,241.3 L 324.0,241.3 L 325.0,241.2 L 326.0,241.2 L 327.0,241.1 L 328.0,241.0 L 329.0,241.0 L 330.0,240.9 L 331.0,240.8 L 332.0,240.8 L 333.0,240.7 L 334.0,240.6 L 335.0,240.6 L 336.0,240.5 L 337.0,240.4 L 338.0,240.3 L 339.0,240.2 L 340.0,240.2 L 341.0,240.1 L 342.0,240.0 L 343.0,239.9 L 344.0,239.8 L 345.0,239.7 L 346.0,239.6 L 347.0,239.5 L 348.0,239.4 L 349.0,239.3 L 350.0,239.2 L 351.0,239.1 L 352.0,239.0 L 353.0,238.9 L 354.0,238.8 L 355.0,238.7 L 356.0,238.6 L 357.0,238.5 L 358.0,238.3 L 359.0,238.2 L 360.0,238.1 L 361.0,238.0 L 362.0,237.9 L 363.0,237.7 L 364.0,237.6 L 365.0,237.5 L 366.0,237.4 L 367.0,237.2 L 368.0,237.1 L 369.0,237.0 L 370.0,236.9 L 371.0,236.7 L 372.0,236.6 L 373.0,236.5 L 374.0,236.3 L 375.0,236.2 L 376.0,236.0 L 377.0,235.9 L 378.0,235.8 L 379.0,235.6 L 380.0,235.5 L 381.0,235.3 L 382.0,235.2 L 383.0,235.1 L 384.0,234.9 L 385.0,234.8 L 386.0,234.6 L 387.0,234.5 L 388.0,234.3 L 389.0,234.2 L 390.0,234.0 L 391.0,233.9 L 392.0,233.7 L 393.0,233.6 L 394.0,233.4 L 395.0,233.3 L 396.0,233.1 L 397.0,232.9 L 398.0,232.8 L 399.0,232.6 L 400.0,232.5 L 401.0,232.3 L 402.0,232.2 L 403.0,232.0 L 404.0,231.9 L 405.0,231.7 L 406.0,231.5 L 407.0,231.4 L 408.0,231.2 L 409.0,231.1 L 410.0,230.9 L 411.0,230.7 L 412.0,230.6 L 413.0,230.4 L 414.0,230.3 L 415.0,230.1 L 416.0,229.9 L 417.0,229.8 L 418.0,229.6 L 419.0,229.5 L 420.0,229.3 L 421.0,229.1 L 422.0,229.0 L 423.0,228.8 L 424.0,228.7 L 425.0,228.5 L 426.0,228.3 L 427.0,228.2 L 428.0,228.0 L 429.0,227.9 L 430.0,227.7 L 431.0,227.6 L 432.0,227.4 L 433.0,227.2 L 434.0,227.1 L 435.0,226.9 L 436.0,226.8 L 437.0,226.6 L 438.0,226.5 L 439.0,226.3 L 440.0,226.2 L 441.0,226.0 L 442.0,225.9 L 443.0,225.7 L 444.0,225.6 L 445.0,225.4 L 446.0,225.3 L 447.0,225.1 L 448.0,225.0 L 449.0,224.8 L 450.0,224.7 L 451.0,224.5 L 452.0,224.4 L 453.0,224.3 L 454.0,224.1 L 455.0,224.0 L 456.0,223.8 L 457.0,223.7 L 458.0,223.6 L 459.0,223.4 L 460.0,223.3 L 461.0,223.2 L 462.0,223.0 L 463.0,222.9 L 464.0,222.8 L 465.0,222.7 L 466.0,222.5 L 467.0,222.4 L 468.0,222.3 L 469.0,222.2 L 470.0,222.0 L 471.0,221.9 L 472.0,221.8 L 473.0,221.7 L 474.0,221.6 L 475.0,221.5 L 476.0,221.3 L 477.0,221.2 L 478.0,221.1 L 479.0,221.0 L 480.0,220.9 L 481.0,220.8 L 482.0,220.7 L 483.0,220.6 L 484.0,220.5 L 485.0,220.4 L 486.0,220.3 L 487.0,220.2 L 488.0,220.1 L 489.0,220.0 L 490.0,220.0 L 491.0,219.9 L 492.0,219.8 L 493.0,219.7 L 494.0,219.6 L 495.0,219.5 L 496.0,219.5 L 497.0,219.4 L 498.0,219.3 L 499.0,219.2 L 500.0,219.2 L 501.0,219.1 L 502.0,219.0 L 503.0,219.0 L 504.0,218.9 L 505.0,218.9 L 506.0,218.8 L 507.0,218.7 L 508.0,218.7 L 509.0,218.6 L 510.0,218.6 L 511.0,218.5 L 512.0,218.5 L 513.0,218.4 L 514.0,218.4 L 515.0,218.4 L 516.0,218.3 L 517.0,218.3 L 518.0,218.3 L 519.0,218.2 L 520.0,218.2 L 521.0,218.2 L 522.0,218.1 L 523.0,218.1 L 524.0,218.1 L 525.0,218.1 L 526.0,218.1 L 527.0,218.0 L 528.0,218.0 L 529.0,218.0 L 530.0,218.0 L 531.0,218.0 L 532.0,218.0 L 533.0,218.0 L 534.0,218.0 L 535.0,218.0 L 536.0,218.0 L 537.0,218.0 L 538.0,218.0 L 539.0,218.0 L 540.0,218.0 L 541.0,218.1 L 542.0,218.1 L 543.0,218.1 L 544.0,218.1 L 545.0,218.1 L 546.0,218.2 L 547.0,218.2 L 548.0,218.2 L 549.0,218.3 L 550.0,218.3 L 551.0,218.3 L 552.0,218.4 L 553.0,218.4 L 554.0,218.4 L 555.0,218.5 L 556.0,218.5 L 557.0,218.6 L 558.0,218.6 L 559.0,218.7 L 560.0,218.7 L 561.0,218.8 L 562.0,218.9 L 563.0,218.9 L 564.0,219.0 L 565.0,219.0 L 566.0,219.1 L 567.0,219.2 L 568.0,219.3 L 569.0,219.3 L 570.0,219.4 L 571.0,219.5 L 572.0,219.6 L 573.0,219.6 L 574.0,219.7 L 575.0,219.8 L 576.0,219.9 L 577.0,220.0 L 578.0,220.1 L 579.0,220.1 L 580.0,220.2 L 581.0,220.3 L 582.0,220.4 L 583.0,220.5 L 584.0,220.6 L 585.0,220.7 L 586.0,220.8 L 587.0,220.9 L 588.0,221.0 L 589.0,221.1 L 590.0,221.3 L 591.0,221.4 L 592.0,221.5 L 593.0,221.6 L 594.0,221.7 L 595.0,221.8 L 596.0,221.9 L 597.0,222.1 L 598.0,222.2 L 599.0,222.3 L 600.0,222.4 L 601.0,222.5 L 602.0,222.7 L 603.0,222.8 L 604.0,222.9 L 605.0,223.1 L 606.0,223.2 L 607.0,223.3 L 608.0,223.5 L 609.0,223.6 L 610.0,223.7 L 611.0,223.9 L 612.0,224.0 L 613.0,224.1 L 614.0,224.3 L 615.0,224.4 L 616.0,224.6 L 617.0,224.7 L 618.0,224.9 L 619.0,225.0 L 620.0,225.1 L 621.0,225.3 L 622.0,225.4 L 623.0,225.6 L 624.0,225.7 L 625.0,225.9 L 626.0,226.0 L 627.0,226.2 L 628.0,226.3 L 629.0,226.5 L 630.0,226.6 L 631.0,226.8 L 632.0,227.0 L 633.0,227.1 L 634.0,227.3 L 635.0,227.4 L 636.0,227.6 L 637.0,227.7 L 638.0,227.9 L 639.0,228.1 L 640.0,228.2 L 641.0,228.4 L 642.0,228.5 L 643.0,228.7 L 644.0,228.8 L 645.0,229.0 L 646.0,229.2 L 647.0,229.3 L 648.0,229.5 L 649.0,229.6 L 650.0,229.8 L 651.0,230.0 L 652.0,230.1 L 653.0,230.3 L 654.0,230.4 L 655.0,230.6 L 656.0,230.8 L 657.0,230.9 L 658.0,231.1 L 659.0,231.2 L 660.0,231.4 L 661.0,231.6 L 662.0,231.7 L 663.0,231.9 L 664.0,232.0 L 665.0,232.2 L 666.0,232.3 L 667.0,232.5 L 668.0,232.7 L 669.0,232.8 L 670.0,233.0 L 671.0,233.1 L 672.0,233.3 L 673.0,233.4 L 674.0,233.6 L 675.0,233.7 L 676.0,233.9 L 677.0,234.0 L 678.0,234.2 L 679.0,234.3 L 680.0,234.5 L 681.0,234.6 L 682.0,234.8 L 683.0,234.9 L 684.0,235.1 L 685.0,235.2 L 686.0,235.4 L 687.0,235.5 L 688.0,235.6 L 689.0,235.8 L 690.0,235.9 L 691.0,236.1 L 692.0,236.2 L 693.0,236.3 L 694.0,236.5 L 695.0,236.6 L 696.0,236.7 L 697.0,236.9 L 698.0,237.0 L 699.0,237.1 L 700.0,237.3 L 701.0,237.4 L 702.0,237.5 L 703.0,237.6 L 704.0,237.8 L 705.0,237.9 L 706.0,238.0 L 707.0,238.1 L 708.0,238.2 L 709.0,238.4 L 710.0,238.5 L 711.0,238.6 L 712.0,238.7 L 713.0,238.8 L 714.0,238.9 L 715.0,239.0 L 716.0,239.1 L 717.0,239.2 L 718.0,239.3 L 719.0,239.4 L 720.0,239.5 L 721.0,239.6 L 722.0,239.7 L 723.0,239.8 L 724.0,239.9 L 725.0,240.0 L 726.0,240.1 L 727.0,240.2 L 728.0,240.2 L 729.0,240.3 L 730.0,240.4 L 731.0,240.5 L 732.0,240.6 L 733.0,240.6 L 734.0,240.7 L 735.0,240.8 L 736.0,240.9 L 737.0,240.9 L 738.0,241.0 L 739.0,241.0 L 740.0,241.1 L 741.0,241.2 L 742.0,241.2 L 743.0,241.3 L 744.0,241.3 L 745.0,241.4 L 746.0,241.4 L 747.0,241.5 L 748.0,241.5 L 749.0,241.6 L 750.0,241.6 L 751.0,241.7 L 752.0,241.7 L 753.0,241.7 L 754.0,241.8 L 755.0,241.8 L 756.0,241.8 L 757.0,241.8 L 758.0,241.9 L 759.0,241.9 L 760.0,241.9 L 761.0,241.9 L 762.0,241.9 L 763.0,242.0 L 764.0,242.0 L 765.0,242.0 L 766.0,242.0 L 767.0,242.0 L 768.0,242.0 L 769.0,242.0 L 770.0,242.0 L 771.0,242.0 L 772.0,242.0 L 773.0,242.0 L 774.0,242.0 L 775.0,242.0 L 776.0,241.9 L 777.0,241.9 L 778.0,241.9 L 779.0,241.9 L 780.0,241.9 L 781.0,241.8 L 782.0,241.8 L 783.0,241.8 L 784.0,241.8 L 785.0,241.7 L 786.0,241.7 L 787.0,241.7 L 788.0,241.6 L 789.0,241.6 L 790.0,241.5 L 791.0,241.5 L 792.0,241.4 L 793.0,241.4 L 794.0,241.3 L 795.0,241.3 L 796.0,241.2 L 797.0,241.2 L 798.0,241.1 L 799.0,241.1 L 800.0,241.0 L 801.0,240.9 L 802.0,240.9 L 803.0,240.8 L 804.0,240.7 L 805.0,240.6 L 806.0,240.6 L 807.0,240.5 L 808.0,240.4 L 809.0,240.3 L 810.0,240.3 L 811.0,240.2 L 812.0,240.1 L 813.0,240.0 L 814.0,239.9 L 815.0,239.8 L 816.0,239.7 L 817.0,239.6 L 818.0,239.5 L 819.0,239.4 L 820.0,239.3 L 821.0,239.2 L 822.0,239.1 L 823.0,239.0 L 824.0,238.9 L 825.0,238.8 L 826.0,238.7 L 827.0,238.6 L 828.0,238.5 L 829.0,238.4 L 830.0,238.3 L 831.0,238.1 L 832.0,238.0 L 833.0,237.9 L 834.0,237.8 L 835.0,237.7 L 836.0,237.5 L 837.0,237.4 L 838.0,237.3 L 839.0,237.1 L 840.0,237.0 L 841.0,236.9 L 842.0,236.8 L 843.0,236.6 L 844.0,236.5 L 845.0,236.4 L 846.0,236.2 L 847.0,236.1 L 848.0,235.9 L 849.0,235.8 L 850.0,235.7 L 851.0,235.5 L 852.0,235.4 L 853.0,235.2 L 854.0,235.1 L 855.0,234.9 L 856.0,234.8 L 857.0,234.7 L 858.0,234.5 L 859.0,234.4 L 860.0,234.2 L 861.0,234.1 L 862.0,233.9 L 863.0,233.8 L 864.0,233.6 L 865.0,233.4 L 866.0,233.3 L 867.0,233.1 L 868.0,233.0 L 869.0,232.8 L 870.0,232.7 L 871.0,232.5 L 872.0,232.4 L 873.0,232.2 L 874.0,232.0 L 875.0,231.9 L 876.0,231.7 L 877.0,231.6 L 878.0,231.4 L 879.0,231.3 L 880.0,231.1 L 881.0,230.9 L 882.0,230.8 L 883.0,230.6 L 884.0,230.5 L 885.0,230.3 L 886.0,230.1 L 887.0,230.0 L 888.0,229.8 L 889.0,229.7 L 890.0,229.5 L 891.0,229.3 L 892.0,229.2 L 893.0,229.0 L 894.0,228.9 L 895.0,228.7 L 896.0,228.5 L 897.0,228.4 L 898.0,228.2 L 899.0,228.1 L 900.0,227.9 L 901.0,227.8 L 902.0,227.6 L 903.0,227.4 L 904.0,227.3 L 905.0,227.1 L 906.0,227.0 L 907.0,226.8 L 908.0,226.7 L 909.0,226.5 L 910.0,226.4 L 911.0,226.2 L 912.0,226.1 L 913.0,225.9 L 914.0,225.8 L 915.0,225.6 L 916.0,225.5 L 917.0,225.3 L 918.0,225.2 L 919.0,225.0 L 920.0,224.9 L 921.0,224.7 L 922.0,224.6 L 923.0,224.4 L 924.0,224.3 L 925.0,224.2 L 926.0,224.0 L 927.0,223.9 L 928.0,223.7 L 929.0,223.6 L 930.0,223.5 L 931.0,223.3 L 932.0,223.2 L 933.0,223.1 L 934.0,222.9 L 935.0,222.8 L 936.0,222.7 L 937.0,222.6 L 938.0,222.4 L 939.0,222.3 L 940.0,222.2 L 941.0,222.1 L 942.0,222.0 L 943.0,221.8 L 944.0,221.7 L 945.0,221.6 L 946.0,221.5 L 947.0,221.4 L 948.0,221.3 L 949.0,221.2 L 950.0,221.0 L 951.0,220.9 L 952.0,220.8 L 953.0,220.7 L 954.0,220.6 L 955.0,220.5 L 956.0,220.4 L 957.0,220.3 L 958.0,220.2 L 959.0,220.2 L 960.0,220.1 L 961.0,220.0 L 962.0,219.9 L 963.0,219.8 L 964.0,219.7 L 965.0,219.6 L 966.0,219.6 L 967.0,219.5 L 968.0,219.4 L 969.0,219.3 L 970.0,219.3 L 971.0,219.2 L 972.0,219.1 L 973.0,219.1 L 974.0,219.0 L 975.0,218.9 L 976.0,218.9 L 977.0,218.8 L 978.0,218.8 L 979.0,218.7 L 980.0,218.6 L 981.0,218.6 L 982.0,218.5 L 983.0,218.5 L 984.0,218.5 L 985.0,218.4 L 986.0,218.4 L 987.0,218.3 L 988.0,218.3 L 989.0,218.3 L 990.0,218.2 L 991.0,218.2 L 992.0,218.2 L 993.0,218.1 L 994.0,218.1 L 995.0,218.1 L 996.0,218.1 L 997.0,218.1 L 998.0,218.0 L 999.0,218.0 L 1000.0,218.0 L 1001.0,218.0 L 1002.0,218.0 L 1003.0,218.0 L 1004.0,218.0 L 1005.0,218.0 L 1006.0,218.0 L 1007.0,218.0 L 1008.0,218.0 L 1009.0,218.0 L 1010.0,218.0 L 1011.0,218.0 L 1012.0,218.1 L 1013.0,218.1 L 1014.0,218.1 L 1015.0,218.1 L 1016.0,218.1 L 1017.0,218.2 L 1018.0,218.2 L 1019.0,218.2 L 1020.0,218.2 L 1021.0,218.3 L 1022.0,218.3 L 1023.0,218.4 L 1024.0,218.4 L 1025.0,218.4 L 1026.0,218.5 L 1027.0,218.5 L 1028.0,218.6 L 1029.0,218.6 L 1030.0,218.7 L 1031.0,218.7 L 1032.0,218.8 L 1033.0,218.8 L 1034.0,218.9 L 1035.0,219.0 L 1036.0,219.0 L 1037.0,219.1 L 1038.0,219.2 L 1039.0,219.2 L 1040.0,219.3 L 1041.0,219.4 L 1042.0,219.5 L 1043.0,219.5 L 1044.0,219.6 L 1045.0,219.7 L 1046.0,219.8 L 1047.0,219.9 L 1048.0,219.9 L 1049.0,220.0 L 1050.0,220.1 L 1051.0,220.2 L 1052.0,220.3 L 1053.0,220.4 L 1054.0,220.5 L 1055.0,220.6 L 1056.0,220.7 L 1057.0,220.8 L 1058.0,220.9 L 1059.0,221.0 L 1060.0,221.1 L 1061.0,221.2 L 1062.0,221.3 L 1063.0,221.5 L 1064.0,221.6 L 1065.0,221.7 L 1066.0,221.8 L 1067.0,221.9 L 1068.0,222.0 L 1069.0,222.2 L 1070.0,222.3 L 1071.0,222.4 L 1072.0,222.5 L 1073.0,222.6 L 1074.0,222.8 L 1075.0,222.9 L 1076.0,223.0 L 1077.0,223.2 L 1078.0,223.3 L 1079.0,223.4 L 1080.0,223.6 L 1081.0,223.7 L 1082.0,223.8 L 1083.0,224.0 L 1084.0,224.1 L 1085.0,224.3 L 1086.0,224.4 L 1087.0,224.5 L 1088.0,224.7 L 1089.0,224.8 L 1090.0,225.0 L 1091.0,225.1 L 1092.0,225.3 L 1093.0,225.4 L 1094.0,225.6 L 1095.0,225.7 L 1096.0,225.9 L 1097.0,226.0 L 1098.0,226.2 L 1099.0,226.3 L 1100.0,226.5 L 1101.0,226.6 L 1102.0,226.8 L 1103.0,226.9 L 1104.0,227.1 L 1105.0,227.2 L 1106.0,227.4 L 1107.0,227.5 L 1108.0,227.7 L 1109.0,227.9 L 1110.0,228.0 L 1111.0,228.2 L 1112.0,228.3 L 1113.0,228.5 L 1114.0,228.6 L 1115.0,228.8 L 1116.0,229.0 L 1117.0,229.1 L 1118.0,229.3 L 1119.0,229.4 L 1120.0,229.6 L 1121.0,229.8 L 1122.0,229.9 L 1123.0,230.1 L 1124.0,230.2 L 1125.0,230.4 L 1126.0,230.6 L 1127.0,230.7 L 1128.0,230.9 L 1129.0,231.0 L 1130.0,231.2 L 1131.0,231.4 L 1132.0,231.5 L 1133.0,231.7 L 1134.0,231.8 L 1135.0,232.0 L 1136.0,232.2 L 1137.0,232.3 L 1138.0,232.5 L 1139.0,232.6 L 1140.0,232.8 L 1141.0,232.9 L 1142.0,233.1 L 1143.0,233.2 L 1144.0,233.4 L 1145.0,233.5 L 1146.0,233.7 L 1147.0,233.9 L 1148.0,234.0 L 1149.0,234.2 L 1150.0,234.3 L 1151.0,234.5 L 1152.0,234.6 L 1153.0,234.7 L 1154.0,234.9 L 1155.0,235.0 L 1156.0,235.2 L 1157.0,235.3 L 1158.0,235.5 L 1159.0,235.6 L 1160.0,235.8 L 1161.0,235.9 L 1162.0,236.0 L 1163.0,236.2 L 1164.0,236.3 L 1165.0,236.4 L 1166.0,236.6 L 1167.0,236.7 L 1168.0,236.8 L 1169.0,237.0 L 1170.0,237.1 L 1171.0,237.2 L 1172.0,237.4 L 1173.0,237.5 L 1174.0,237.6 L 1175.0,237.7 L 1176.0,237.9 L 1177.0,238.0 L 1178.0,238.1 L 1179.0,238.2 L 1180.0,238.3 L 1181.0,238.4 L 1182.0,238.6 L 1183.0,238.7 L 1184.0,238.8 L 1185.0,238.9 L 1186.0,239.0 L 1187.0,239.1 L 1188.0,239.2 L 1189.0,239.3 L 1190.0,239.4 L 1191.0,239.5 L 1192.0,239.6 L 1193.0,239.7 L 1194.0,239.8 L 1195.0,239.9 L 1196.0,240.0 L 1197.0,240.1 L 1198.0,240.1 L 1199.0,240.2 L 1200.0,240.3 L 1201.0,240.4 L 1202.0,240.5 L 1203.0,240.5 L 1204.0,240.6 L 1205.0,240.7 L 1206.0,240.8 L 1207.0,240.8 L 1208.0,240.9 L 1209.0,241.0 L 1210.0,241.0 L 1211.0,241.1 L 1212.0,241.2 L 1213.0,241.2 L 1214.0,241.3 L 1215.0,241.3 L 1216.0,241.4 L 1217.0,241.4 L 1218.0,241.5 L 1219.0,241.5 L 1220.0,241.6 L 1221.0,241.6 L 1222.0,241.6 L 1223.0,241.7 L 1224.0,241.7 L 1225.0,241.8 L 1226.0,241.8 L 1227.0,241.8 L 1228.0,241.8 L 1229.0,241.9 L 1230.0,241.9 L 1231.0,241.9 L 1232.0,241.9 L 1233.0,241.9 L 1234.0,242.0 L 1235.0,242.0 L 1236.0,242.0 L 1237.0,242.0 L 1238.0,242.0 L 1239.0,242.0 L 1240.0,242.0 L 1241.0,242.0 L 1242.0,242.0 L 1243.0,242.0 L 1244.0,242.0 L 1245.0,242.0 L 1246.0,242.0 L 1247.0,242.0 L 1248.0,241.9 L 1249.0,241.9 L 1250.0,241.9 L 1251.0,241.9 L 1252.0,241.9 L 1253.0,241.8 L 1254.0,241.8 L 1255.0,241.8 L 1256.0,241.7 L 1257.0,241.7 L 1258.0,241.7 L 1259.0,241.6 L 1260.0,241.6 L 1261.0,241.5 L 1262.0,241.5 L 1263.0,241.5 L 1264.0,241.4 L 1265.0,241.4 L 1266.0,241.3 L 1267.0,241.2 L 1268.0,241.2 L 1269.0,241.1 L 1270.0,241.1 L 1271.0,241.0 L 1272.0,240.9 L 1273.0,240.9 L 1274.0,240.8 L 1275.0,240.7 L 1276.0,240.7 L 1277.0,240.6 L 1278.0,240.5 L 1279.0,240.4 L 1280.0,240.4 L 1281.0,240.3 L 1282.0,240.2 L 1283.0,240.1 L 1284.0,240.0 L 1285.0,239.9 L 1286.0,239.8 L 1287.0,239.7 L 1288.0,239.7 L 1289.0,239.6 L 1290.0,239.5 L 1291.0,239.4 L 1292.0,239.3 L 1293.0,239.2 L 1294.0,239.1 L 1295.0,238.9 L 1296.0,238.8 L 1297.0,238.7 L 1298.0,238.6 L 1299.0,238.5 L 1300.0,238.4 L 1301.0,238.3 L 1302.0,238.2 L 1303.0,238.0 L 1304.0,237.9 L 1305.0,237.8 L 1306.0,237.7 L 1307.0,237.6 L 1308.0,237.4 L 1309.0,237.3 L 1310.0,237.2 L 1311.0,237.0 L 1312.0,236.9 L 1313.0,236.8 L 1314.0,236.7 L 1315.0,236.5 L 1316.0,236.4 L 1317.0,236.3 L 1318.0,236.1 L 1319.0,236.0 L 1320.0,235.8 L 1321.0,235.7 L 1322.0,235.6 L 1323.0,235.4 L 1324.0,235.3 L 1325.0,235.1 L 1326.0,235.0 L 1327.0,234.8 L 1328.0,234.7 L 1329.0,234.5 L 1330.0,234.4 L 1331.0,234.2 L 1332.0,234.1 L 1333.0,233.9 L 1334.0,233.8 L 1335.0,233.6 L 1336.0,233.5 L 1337.0,233.3 L 1338.0,233.2 L 1339.0,233.0 L 1340.0,232.9 L 1341.0,232.7 L 1342.0,232.6 L 1343.0,232.4 L 1344.0,232.2 L 1345.0,232.1 L 1346.0,231.9 L 1347.0,231.8 L 1348.0,231.6 L 1349.0,231.5 L 1350.0,231.3 L 1351.0,231.1 L 1352.0,231.0 L 1353.0,230.8 L 1354.0,230.7 L 1355.0,230.5 L 1356.0,230.3 L 1357.0,230.2 L 1358.0,230.0 L 1359.0,229.9 L 1360.0,229.7 L 1361.0,229.5 L 1362.0,229.4 L 1363.0,229.2 L 1364.0,229.1 L 1365.0,228.9 L 1366.0,228.7 L 1367.0,228.6 L 1368.0,228.4 L 1369.0,228.3 L 1370.0,228.1 L 1371.0,227.9 L 1372.0,227.8 L 1373.0,227.6 L 1374.0,227.5 L 1375.0,227.3 L 1376.0,227.2 L 1377.0,227.0 L 1378.0,226.9 L 1379.0,226.7" fill="none" stroke="#fbbf24" stroke-width="4" /><rect fill="#e5e7eb" height="82" rx="24" stroke="#94a3b8" stroke-width="2" width="980" x="260" y="595" /><rect fill="#bae6fd" height="19" rx="4" width="58" x="420" y="622" /><rect fill="#bae6fd" height="19" rx="4" width="58" x="560" y="622" /><rect fill="#bae6fd" height="19" rx="4" width="58" x="700" y="622" /><rect fill="#bae6fd" height="19" rx="4" width="58" x="840" y="622" /><rect fill="#bae6fd" height="19" rx="4" width="58" x="980" y="622" /><line stroke="#ef4444" stroke-width="6" x1="760" x2="690" y1="590" y2="430" /><line stroke="#ef4444" stroke-width="6" x1="760" x2="840" y1="590" y2="430" /><line stroke="#ef4444" stroke-width="6" x1="690" x2="840" y1="430" y2="430" /><line stroke="#ef4444" stroke-width="6" x1="765" x2="765" y1="430" y2="258" /><line stroke="#ef4444" stroke-width="5" x1="725" x2="805" y1="258" y2="258" /><rect fill="#142449" height="105" rx="12" ry="12" stroke="#315281" stroke-width="1.4" width="370" x="90" y="295" /><text fill="#ffffff" font-family="DejaVu Sans, Arial, sans-serif" font-size="17" font-weight="700" text-anchor="start" x="106" y="322">Контактный провод</text><text fill="#d5deec" font-family="DejaVu Sans, Arial, sans-serif" font-size="14" font-weight="normal" text-anchor="start" x="106" y="345">скорость волны и натяжение задают</text><text fill="#d5deec" font-family="DejaVu Sans, Arial, sans-serif" font-size="14" font-weight="normal" text-anchor="start" x="106" y="362">устойчивость контакта</text><rect fill="#142449" height="105" rx="12" ry="12" stroke="#315281" stroke-width="1.4" width="390" x="1110" y="290" /><text fill="#ffffff" font-family="DejaVu Sans, Arial, sans-serif" font-size="17" font-weight="700" text-anchor="start" x="1126" y="317">Волна в сети</text><text fill="#d5deec" font-family="DejaVu Sans, Arial, sans-serif" font-size="14" font-weight="normal" text-anchor="start" x="1126" y="340">пантограф не просто касается провода — он</text><text fill="#d5deec" font-family="DejaVu Sans, Arial, sans-serif" font-size="14" font-weight="normal" text-anchor="start" x="1126" y="357">его раскачивает</text><rect fill="#142449" height="108" rx="12" ry="12" stroke="#315281" stroke-width="1.4" width="410" x="985" y="480" /><text fill="#ffffff" font-family="DejaVu Sans, Arial, sans-serif" font-size="17" font-weight="700" text-anchor="start" x="1001" y="507">Контактная сила</text><text fill="#d5deec" font-family="DejaVu Sans, Arial, sans-serif" font-size="14" font-weight="normal" text-anchor="start" x="1001" y="530">слишком мала — отрыв, слишком велика — износ</text><rect fill="#142449" height="110" rx="12" ry="12" stroke="#315281" stroke-width="1.4" width="520" x="80" y="710" /><text fill="#ffffff" font-family="DejaVu Sans, Arial, sans-serif" font-size="17" font-weight="700" text-anchor="start" x="96" y="737">Контрольный вопрос</text><text fill="#d5deec" font-family="DejaVu Sans, Arial, sans-serif" font-size="14" font-weight="normal" text-anchor="start" x="96" y="760">25 кВ 50 Гц или 2×25 кВ? Однорычажный пантограф? Допустимые</text><text fill="#d5deec" font-family="DejaVu Sans, Arial, sans-serif" font-size="14" font-weight="normal" text-anchor="start" x="96" y="777">отрывы 5–10 мс?</text><line marker-end="url(#arrow_white)" stroke="#ffffff" stroke-width="2" x1="460" x2="520" y1="340" y2="230" /><line marker-end="url(#arrow_white)" stroke="#ffffff" stroke-width="2" x1="1110" x2="1040" y1="340" y2="242" /><line marker-end="url(#arrow_white)" stroke="#ffffff" stroke-width="2" x1="985" x2="820" y1="530" y2="430" /><text fill="#aebbd0" font-family="DejaVu Sans, Arial, sans-serif" font-size="14" font-weight="normal" text-anchor="start" x="60" y="866">Авторская схема. Не является проектом контактной сети; показывает динамику токосъёма.</text></svg>