<?xml version="1.0" encoding="utf-8" ?>
<svg baseProfile="full" height="900" version="1.1" viewBox="0 0 1400 900" width="1400" xmlns="http://www.w3.org/2000/svg" xmlns:ev="http://www.w3.org/2001/xml-events" xmlns:xlink="http://www.w3.org/1999/xlink"><defs><marker id="arrow" markerHeight="10" markerWidth="10" orient="auto" refX="10" refY="5"><path d="M 0 0 L 10 5 L 0 10 z" fill="#1d2737" /></marker><marker id="arrow_white" markerHeight="10" markerWidth="10" orient="auto" refX="10" refY="5"><path d="M 0 0 L 10 5 L 0 10 z" fill="white" /></marker><marker id="dot" markerHeight="8" markerWidth="8" orient="auto" refX="4" refY="4"><circle cx="4" cy="4" fill="#1d2737" r="3" /></marker></defs><rect fill="#f7f8fb" height="900" width="1400" x="0" y="0" /><text fill="#1d2737" font-family="DejaVu Sans, Arial, sans-serif" font-size="34" font-weight="700" x="50" y="60">Рис. 7. Тормозная кривая ВСМ: где автоматика сильнее человека</text><text fill="#5c6b80" font-family="DejaVu Sans, Arial, sans-serif" font-size="18" x="50" y="95">ATP/ETCS-аналог не ждёт, пока машинист «почувствует»: скорость контролируется по безопасной кривой.</text><line stroke="#d7dee8" stroke-width="1" x1="150" x2="1160" y1="210.0" y2="210.0" /><line stroke="#d7dee8" stroke-width="1" x1="150" x2="1160" y1="310.0" y2="310.0" /><line stroke="#d7dee8" stroke-width="1" x1="150" x2="1160" y1="410.0" y2="410.0" /><line stroke="#d7dee8" stroke-width="1" x1="150" x2="1160" y1="510.0" y2="510.0" /><line stroke="#d7dee8" stroke-width="1" x1="150" x2="1160" y1="610.0" y2="610.0" /><line stroke="#d7dee8" stroke-width="1" x1="150" x2="1160" y1="710.0" y2="710.0" /><line stroke="#d7dee8" stroke-width="1" x1="150.0" x2="150.0" y1="210" y2="710" /><line stroke="#d7dee8" stroke-width="1" x1="352.0" x2="352.0" y1="210" y2="710" /><line stroke="#d7dee8" stroke-width="1" x1="554.0" x2="554.0" y1="210" y2="710" /><line stroke="#d7dee8" stroke-width="1" x1="756.0" x2="756.0" y1="210" y2="710" /><line stroke="#d7dee8" stroke-width="1" x1="958.0" x2="958.0" y1="210" y2="710" /><line stroke="#d7dee8" stroke-width="1" x1="1160.0" x2="1160.0" y1="210" y2="710" /><line marker-end="url(#arrow)" stroke="#1d2737" stroke-width="3" x1="150" x2="1160" y1="710" y2="710" /><line marker-end="url(#arrow)" stroke="#1d2737" stroke-width="3" x1="150" x2="150" y1="710" y2="210" /><path d="M 180.0,270.0 L 187.0,270.1 L 194.0,270.2 L 201.0,270.2 L 208.0,270.3 L 215.0,270.4 L 222.0,270.5 L 229.0,270.5 L 236.0,270.6 L 243.0,270.7 L 250.0,270.8 L 257.0,270.8 L 264.0,270.9 L 271.0,271.0 L 278.0,271.1 L 285.0,271.2 L 292.0,271.2 L 299.0,271.3 L 306.0,271.4 L 313.0,271.5 L 320.0,271.6 L 327.0,271.6 L 334.0,271.7 L 341.0,271.8 L 348.0,271.9 L 355.0,272.0 L 362.0,272.1 L 369.0,272.2 L 376.0,272.3 L 383.0,272.4 L 390.0,272.5 L 397.0,272.6 L 404.0,272.7 L 411.0,272.9 L 418.0,273.0 L 425.0,273.1 L 432.0,273.3 L 439.0,273.4 L 446.0,273.6 L 453.0,273.7 L 460.0,273.9 L 467.0,274.1 L 474.0,274.3 L 481.0,274.5 L 488.0,274.7 L 495.0,275.0 L 502.0,275.2 L 509.0,275.5 L 516.0,275.8 L 523.0,276.1 L 530.0,276.4 L 537.0,276.7 L 544.0,277.1 L 551.0,277.5 L 558.0,277.9 L 565.0,278.3 L 572.0,278.8 L 579.0,279.2 L 586.0,279.8 L 593.0,280.3 L 600.0,280.9 L 607.0,281.5 L 614.0,282.2 L 621.0,282.9 L 628.0,283.6 L 635.0,284.4 L 642.0,285.2 L 649.0,286.1 L 656.0,287.0 L 663.0,287.9 L 670.0,289.0 L 677.0,290.0 L 684.0,291.2 L 691.0,292.4 L 698.0,293.6 L 705.0,294.9 L 712.0,296.3 L 719.0,297.8 L 726.0,299.3 L 733.0,300.9 L 740.0,302.6 L 747.0,304.4 L 754.0,306.3 L 761.0,308.2 L 768.0,310.3 L 775.0,312.4 L 782.0,314.6 L 789.0,317.0 L 796.0,319.4 L 803.0,322.0 L 810.0,324.6 L 817.0,327.4 L 824.0,330.3 L 831.0,333.4 L 838.0,336.5 L 845.0,339.8 L 852.0,343.3 L 859.0,346.8 L 866.0,350.6 L 873.0,354.5 L 880.0,358.5 L 887.0,362.7 L 894.0,367.1 L 901.0,371.6 L 908.0,376.3 L 915.0,381.2 L 922.0,386.3 L 929.0,391.6 L 936.0,397.0 L 943.0,402.7 L 950.0,408.6 L 957.0,414.7 L 964.0,421.0 L 971.0,427.6 L 978.0,434.3 L 985.0,441.4 L 992.0,448.6 L 999.0,456.1 L 1006.0,463.9 L 1013.0,472.0 L 1020.0,480.3 L 1027.0,488.9 L 1034.0,497.8 L 1041.0,506.9 L 1048.0,516.4 L 1055.0,526.2 L 1062.0,536.3 L 1069.0,546.7 L 1076.0,557.5 L 1083.0,568.6 L 1090.0,580.0" fill="none" stroke="#ef4444" stroke-dasharray="none" stroke-width="4" /><path d="M 180.0,315.0 L 187.0,315.1 L 194.0,315.1 L 201.0,315.2 L 208.0,315.2 L 215.0,315.3 L 222.0,315.4 L 229.0,315.4 L 236.0,315.5 L 243.0,315.6 L 250.0,315.6 L 257.0,315.7 L 264.0,315.8 L 271.0,315.8 L 278.0,315.9 L 285.0,316.0 L 292.0,316.0 L 299.0,316.1 L 306.0,316.2 L 313.0,316.2 L 320.0,316.3 L 327.0,316.4 L 334.0,316.5 L 341.0,316.6 L 348.0,316.7 L 355.0,316.8 L 362.0,316.9 L 369.0,317.0 L 376.0,317.1 L 383.0,317.3 L 390.0,317.4 L 397.0,317.5 L 404.0,317.7 L 411.0,317.9 L 418.0,318.0 L 425.0,318.2 L 432.0,318.4 L 439.0,318.6 L 446.0,318.8 L 453.0,319.1 L 460.0,319.3 L 467.0,319.6 L 474.0,319.8 L 481.0,320.1 L 488.0,320.5 L 495.0,320.8 L 502.0,321.1 L 509.0,321.5 L 516.0,321.9 L 523.0,322.3 L 530.0,322.8 L 537.0,323.2 L 544.0,323.7 L 551.0,324.3 L 558.0,324.8 L 565.0,325.4 L 572.0,326.0 L 579.0,326.7 L 586.0,327.3 L 593.0,328.0 L 600.0,328.8 L 607.0,329.6 L 614.0,330.4 L 621.0,331.3 L 628.0,332.2 L 635.0,333.1 L 642.0,334.1 L 649.0,335.2 L 656.0,336.3 L 663.0,337.4 L 670.0,338.6 L 677.0,339.9 L 684.0,341.2 L 691.0,342.5 L 698.0,343.9 L 705.0,345.4 L 712.0,347.0 L 719.0,348.6 L 726.0,350.2 L 733.0,352.0 L 740.0,353.8 L 747.0,355.6 L 754.0,357.6 L 761.0,359.6 L 768.0,361.7 L 775.0,363.9 L 782.0,366.1 L 789.0,368.5 L 796.0,370.9 L 803.0,373.4 L 810.0,376.0 L 817.0,378.7 L 824.0,381.5 L 831.0,384.4 L 838.0,387.4 L 845.0,390.5 L 852.0,393.7 L 859.0,397.0 L 866.0,400.4 L 873.0,403.9 L 880.0,407.5 L 887.0,411.3 L 894.0,415.1 L 901.0,419.1 L 908.0,423.2 L 915.0,427.5 L 922.0,431.9 L 929.0,436.4 L 936.0,441.0 L 943.0,445.8 L 950.0,450.7 L 957.0,455.7 L 964.0,460.9 L 971.0,466.3 L 978.0,471.8 L 985.0,477.4 L 992.0,483.3 L 999.0,489.2 L 1006.0,495.4 L 1013.0,501.7 L 1020.0,508.2 L 1027.0,514.8 L 1034.0,521.6 L 1041.0,528.6 L 1048.0,535.8 L 1055.0,543.2 L 1062.0,550.8 L 1069.0,558.5 L 1076.0,566.5 L 1083.0,574.6 L 1090.0,583.0" fill="none" stroke="#2563eb" stroke-dasharray="10,8" stroke-width="4" /><path d="M 180.0,282.0 L 187.0,282.1 L 194.0,282.3 L 201.0,282.4 L 208.0,282.6 L 215.0,282.7 L 222.0,282.8 L 229.0,283.0 L 236.0,283.1 L 243.0,283.2 L 250.0,283.4 L 257.0,283.5 L 264.0,283.7 L 271.0,283.8 L 278.0,283.9 L 285.0,284.1 L 292.0,284.2 L 299.0,284.4 L 306.0,284.5 L 313.0,284.6 L 320.0,284.8 L 327.0,284.9 L 334.0,285.1 L 341.0,285.2 L 348.0,285.3 L 355.0,285.5 L 362.0,285.6 L 369.0,285.8 L 376.0,285.9 L 383.0,286.1 L 390.0,286.2 L 397.0,286.4 L 404.0,286.5 L 411.0,286.7 L 418.0,286.8 L 425.0,287.0 L 432.0,287.1 L 439.0,287.3 L 446.0,287.5 L 453.0,287.7 L 460.0,287.8 L 467.0,288.0 L 474.0,288.2 L 481.0,288.4 L 488.0,288.6 L 495.0,288.9 L 502.0,289.1 L 509.0,289.3 L 516.0,289.6 L 523.0,289.8 L 530.0,290.1 L 537.0,290.4 L 544.0,290.7 L 551.0,291.0 L 558.0,291.3 L 565.0,291.7 L 572.0,292.1 L 579.0,292.5 L 586.0,292.9 L 593.0,293.3 L 600.0,293.8 L 607.0,294.3 L 614.0,294.8 L 621.0,295.4 L 628.0,296.0 L 635.0,296.6 L 642.0,297.3 L 649.0,298.0 L 656.0,298.8 L 663.0,299.6 L 670.0,300.5 L 677.0,301.4 L 684.0,302.4 L 691.0,303.4 L 698.0,304.5 L 705.0,305.7 L 712.0,306.9 L 719.0,308.2 L 726.0,309.6 L 733.0,311.1 L 740.0,312.6 L 747.0,314.3 L 754.0,316.0 L 761.0,317.9 L 768.0,319.8 L 775.0,321.9 L 782.0,324.1 L 789.0,326.4 L 796.0,328.8 L 803.0,331.4 L 810.0,334.1 L 817.0,337.0 L 824.0,340.0 L 831.0,343.1 L 838.0,346.5 L 845.0,350.0 L 852.0,353.7 L 859.0,357.6 L 866.0,361.6 L 873.0,365.9 L 880.0,370.4 L 887.0,375.2 L 894.0,380.1 L 901.0,385.3 L 908.0,390.8 L 915.0,396.5 L 922.0,402.5 L 929.0,408.7 L 936.0,415.3 L 943.0,422.2 L 950.0,429.4 L 957.0,436.9 L 964.0,444.7 L 971.0,452.9 L 978.0,461.5 L 985.0,470.4 L 992.0,479.8 L 999.0,489.5 L 1006.0,499.7 L 1013.0,510.3 L 1020.0,521.3 L 1027.0,532.8 L 1034.0,544.8 L 1041.0,557.3 L 1048.0,570.3 L 1055.0,583.8 L 1062.0,597.9 L 1069.0,612.5 L 1076.0,627.7 L 1083.0,643.6 L 1090.0,660.0" fill="none" stroke="#22c55e" stroke-dasharray="none" stroke-width="4" /><line stroke="#111827" stroke-dasharray="8,8" stroke-width="2" x1="1050" x2="1050" y1="250" y2="710" /><text fill="#1d2737" font-family="DejaVu Sans, Arial, sans-serif" font-size="16" text-anchor="end" x="1040" y="235">точка безопасной остановки</text><rect fill="#eef2f8" height="120" rx="14" ry="14" stroke="#cbd5e1" stroke-width="1.2" width="300" x="770" y="220" /><line stroke="#ef4444" stroke-dasharray="none" stroke-width="4" x1="805" x2="875" y1="260" y2="260" /><text fill="#1d2737" font-family="DejaVu Sans, Arial, sans-serif" font-size="16" x="895" y="265">разрешённая скорость</text><line stroke="#2563eb" stroke-dasharray="10,8" stroke-width="4" x1="805" x2="875" y1="290" y2="290" /><text fill="#1d2737" font-family="DejaVu Sans, Arial, sans-serif" font-size="16" x="895" y="295">фактическая скорость</text><line stroke="#22c55e" stroke-dasharray="none" stroke-width="4" x1="805" x2="875" y1="320" y2="320" /><text fill="#1d2737" font-family="DejaVu Sans, Arial, sans-serif" font-size="16" x="895" y="325">аварийная тормозная кривая</text><text fill="#1d2737" font-family="DejaVu Sans, Arial, sans-serif" font-size="18" x="92" y="195">скорость</text><text fill="#1d2737" font-family="DejaVu Sans, Arial, sans-serif" font-size="18" x="1000" y="752">дистанция до цели</text><text fill="#7b8799" font-family="DejaVu Sans, Arial, sans-serif" font-size="14" x="50" y="872">Если фактическая скорость пересекает безопасную кривую, автоматика должна вмешаться раньше человека.</text></svg>