<?xml version="1.0" encoding="utf-8" ?>
<svg baseProfile="full" height="900" version="1.1" viewBox="0 0 1600 900" width="1600" xmlns="http://www.w3.org/2000/svg" xmlns:ev="http://www.w3.org/2001/xml-events" xmlns:xlink="http://www.w3.org/1999/xlink"><defs><marker id="arrow" markerHeight="10" markerWidth="10" orient="auto" refX="10" refY="5"><path d="M 0 0 L 10 5 L 0 10 z" fill="#1f2937" /></marker><marker id="arrow_white" markerHeight="10" markerWidth="10" orient="auto" refX="10" refY="5"><path d="M 0 0 L 10 5 L 0 10 z" fill="#ffffff" /></marker><marker id="arrow_red" markerHeight="10" markerWidth="10" orient="auto" refX="10" refY="5"><path d="M 0 0 L 10 5 L 0 10 z" fill="#ef4444" /></marker><marker id="arrow_blue" markerHeight="10" markerWidth="10" orient="auto" refX="10" refY="5"><path d="M 0 0 L 10 5 L 0 10 z" fill="#2563eb" /></marker><marker id="arrow_green" markerHeight="10" markerWidth="10" orient="auto" refX="10" refY="5"><path d="M 0 0 L 10 5 L 0 10 z" fill="#22c55e" /></marker></defs><rect fill="#f6f8fc" height="900" width="1600" x="0" y="0" /><text fill="#1f2937" font-family="DejaVu Sans, Arial, sans-serif" font-size="38" font-weight="700" text-anchor="start" x="60" y="58">Рис. 6. Кузовной профиль 980 мм: где вопрос к заводу</text><text fill="#64748b" font-family="DejaVu Sans, Arial, sans-serif" font-size="18" font-weight="normal" text-anchor="start" x="60" y="96">Гипотеза по крупному алюминиевому профилю; точный смысл 980 мм требует заводского чертежа.</text><rect fill="#d9e3ee" height="420" rx="22" stroke="#475569" stroke-width="3" width="380" x="250" y="230" /><rect fill="#f6f8fc" height="56" rx="8" stroke="#64748b" stroke-width="2" width="240" x="320" y="295" /><rect fill="#f6f8fc" height="56" rx="8" stroke="#64748b" stroke-width="2" width="240" x="320" y="405" /><rect fill="#f6f8fc" height="56" rx="8" stroke="#64748b" stroke-width="2" width="240" x="320" y="515" /><text fill="#64748b" font-family="DejaVu Sans, Arial, sans-serif" font-size="19" text-anchor="middle" x="440" y="695">условный крупный профиль</text><rect fill="#fbfdff" height="420" rx="18" stroke="#60a5fa" stroke-dasharray="10,8" stroke-width="2" width="500" x="820" y="230" /><rect fill="#dbe4ef" height="62" rx="8" stroke="#64748b" stroke-width="2" width="320" x="900" y="300" /><rect fill="#dbe4ef" height="62" rx="8" stroke="#64748b" stroke-width="2" width="320" x="900" y="475" /><path d="M 910 430 C 955 405, 1005 455, 1055 430 S 1150 405, 1210 430" fill="none" stroke="#ef4444" stroke-width="4" /><text fill="#ef4444" font-family="DejaVu Sans, Arial, sans-serif" font-size="18" text-anchor="middle" x="1060" y="410">сварной шов</text><line marker-end="url(#arrow)" marker-start="url(#arrow)" stroke="#1f2937" stroke-width="2" x1="785" x2="785" y1="300" y2="537" /><text fill="#1f2937" font-family="DejaVu Sans, Arial, sans-serif" font-size="22" text-anchor="middle" transform="rotate(-90,760,425)" x="760" y="425">980 мм</text><line stroke="#1f2937" stroke-width="2" x1="785" x2="900" y1="300" y2="300" /><line stroke="#1f2937" stroke-width="2" x1="785" x2="900" y1="537" y2="537" /><rect fill="#ffffff" height="92" rx="12" ry="12" stroke="#cbd5e1" stroke-width="1.4" width="505" x="825" y="695" /><text fill="#1f2937" font-family="DejaVu Sans, Arial, sans-serif" font-size="17" font-weight="700" text-anchor="start" x="841" y="722">Что надо проверить</text><text fill="#64748b" font-family="DejaVu Sans, Arial, sans-serif" font-size="14" font-weight="normal" text-anchor="start" x="841" y="745">геометрия, остаточные напряжения, ультразвук/рентген,</text><text fill="#64748b" font-family="DejaVu Sans, Arial, sans-serif" font-size="14" font-weight="normal" text-anchor="start" x="841" y="762">усталостные испытания</text><text fill="#7a8799" font-family="DejaVu Sans, Arial, sans-serif" font-size="14" font-weight="normal" text-anchor="start" x="60" y="866">Авторская схема. Не утверждает точную форму профиля; показывает технологический смысл заявления о сварке профиля 980 мм.</text></svg>