<?xml version="1.0" encoding="utf-8" ?>
<svg baseProfile="full" height="900" version="1.1" viewBox="0 0 1600 900" width="1600" xmlns="http://www.w3.org/2000/svg" xmlns:ev="http://www.w3.org/2001/xml-events" xmlns:xlink="http://www.w3.org/1999/xlink"><defs><marker id="arrow" markerHeight="10" markerWidth="10" orient="auto" refX="10" refY="5"><path d="M 0 0 L 10 5 L 0 10 z" fill="#1f2937" /></marker><marker id="arrow_white" markerHeight="10" markerWidth="10" orient="auto" refX="10" refY="5"><path d="M 0 0 L 10 5 L 0 10 z" fill="#ffffff" /></marker><marker id="arrow_red" markerHeight="10" markerWidth="10" orient="auto" refX="10" refY="5"><path d="M 0 0 L 10 5 L 0 10 z" fill="#ef4444" /></marker><marker id="arrow_blue" markerHeight="10" markerWidth="10" orient="auto" refX="10" refY="5"><path d="M 0 0 L 10 5 L 0 10 z" fill="#2563eb" /></marker><marker id="arrow_green" markerHeight="10" markerWidth="10" orient="auto" refX="10" refY="5"><path d="M 0 0 L 10 5 L 0 10 z" fill="#22c55e" /></marker></defs><rect fill="#f6f8fc" height="900" width="1600" x="0" y="0" /><text fill="#1f2937" font-family="DejaVu Sans, Arial, sans-serif" font-size="38" font-weight="700" text-anchor="start" x="60" y="58">Рис. 8. Где будущая российская ВСМ на мировой шкале</text><text fill="#64748b" font-family="DejaVu Sans, Arial, sans-serif" font-size="18" font-weight="normal" text-anchor="start" x="60" y="96">Скорости и проектные ориентиры по открытым источникам статьи.</text><line stroke="#dbe3ee" stroke-width="1" x1="420.0" x2="420.0" y1="190" y2="705" /><text fill="#64748b" font-family="DejaVu Sans, Arial, sans-serif" font-size="16" text-anchor="middle" x="420.0" y="735">0</text><line stroke="#dbe3ee" stroke-width="1" x1="576.6666666666666" x2="576.6666666666666" y1="190" y2="705" /><text fill="#64748b" font-family="DejaVu Sans, Arial, sans-serif" font-size="16" text-anchor="middle" x="576.6666666666666" y="735">100</text><line stroke="#dbe3ee" stroke-width="1" x1="733.3333333333333" x2="733.3333333333333" y1="190" y2="705" /><text fill="#64748b" font-family="DejaVu Sans, Arial, sans-serif" font-size="16" text-anchor="middle" x="733.3333333333333" y="735">200</text><line stroke="#dbe3ee" stroke-width="1" x1="890.0" x2="890.0" y1="190" y2="705" /><text fill="#64748b" font-family="DejaVu Sans, Arial, sans-serif" font-size="16" text-anchor="middle" x="890.0" y="735">300</text><line stroke="#dbe3ee" stroke-width="1" x1="1046.6666666666665" x2="1046.6666666666665" y1="190" y2="705" /><text fill="#64748b" font-family="DejaVu Sans, Arial, sans-serif" font-size="16" text-anchor="middle" x="1046.6666666666665" y="735">400</text><line stroke="#dbe3ee" stroke-width="1" x1="1203.3333333333335" x2="1203.3333333333335" y1="190" y2="705" /><text fill="#64748b" font-family="DejaVu Sans, Arial, sans-serif" font-size="16" text-anchor="middle" x="1203.3333333333335" y="735">500</text><line stroke="#dbe3ee" stroke-width="1" x1="1360.0" x2="1360.0" y1="190" y2="705" /><text fill="#64748b" font-family="DejaVu Sans, Arial, sans-serif" font-size="16" text-anchor="middle" x="1360.0" y="735">600</text><line marker-end="url(#arrow)" stroke="#1f2937" stroke-width="3" x1="420" x2="1360" y1="705" y2="705" /><text fill="#1f2937" font-family="DejaVu Sans, Arial, sans-serif" font-size="18" x="1372" y="735">км/ч</text><text fill="#1f2937" font-family="DejaVu Sans, Arial, sans-serif" font-size="20" x="120" y="240">«Сапсан»</text><rect fill="#94a3b8" height="30" rx="13" ry="13" width="391.66666666666674" x="420" y="215" /><text fill="#1f2937" font-family="DejaVu Sans, Arial, sans-serif" font-size="17" x="825.6666666666667" y="237">250</text><text fill="#1f2937" font-family="DejaVu Sans, Arial, sans-serif" font-size="20" x="120" y="312">Tokaido Shinkansen</text><rect fill="#60a5fa" height="30" rx="13" ry="13" width="446.5" x="420" y="287" /><text fill="#1f2937" font-family="DejaVu Sans, Arial, sans-serif" font-size="17" x="880.5" y="309">285</text><text fill="#1f2937" font-family="DejaVu Sans, Arial, sans-serif" font-size="20" x="120" y="384">TGV</text><rect fill="#2563eb" height="30" rx="13" ry="13" width="501.33333333333326" x="420" y="359" /><text fill="#1f2937" font-family="DejaVu Sans, Arial, sans-serif" font-size="17" x="935.3333333333333" y="381">320</text><text fill="#1f2937" font-family="DejaVu Sans, Arial, sans-serif" font-size="20" x="120" y="456">Fuxing / CR400</text><rect fill="#f59e0b" height="30" rx="13" ry="13" width="548.3333333333334" x="420" y="431" /><text fill="#1f2937" font-family="DejaVu Sans, Arial, sans-serif" font-size="17" x="982.3333333333334" y="453">350</text><text fill="#1f2937" font-family="DejaVu Sans, Arial, sans-serif" font-size="20" x="120" y="528">Будущий ЭВС360</text><rect fill="#ef4444" height="30" rx="13" ry="13" width="564.0" x="420" y="503" /><text fill="#1f2937" font-family="DejaVu Sans, Arial, sans-serif" font-size="17" x="998.0" y="525">360 / до 400</text><text fill="#1f2937" font-family="DejaVu Sans, Arial, sans-serif" font-size="20" x="120" y="600">Shanghai Maglev</text><rect fill="#a855f7" height="30" rx="13" ry="13" width="673.6666666666665" x="420" y="575" /><text fill="#1f2937" font-family="DejaVu Sans, Arial, sans-serif" font-size="17" x="1107.6666666666665" y="597">430</text><rect fill="#eef3f9" height="72" rx="12" ry="12" stroke="#cbd5e1" stroke-width="1.4" width="1350" x="90" y="785" /><text fill="#64748b" font-family="DejaVu Sans, Arial, sans-serif" font-size="14" font-weight="normal" text-anchor="start" x="106" y="814">Урок: рекордная скорость не равна успеху. Нужны частота, загрузка, обслуживание, безопасность и экономика.</text><text fill="#7a8799" font-family="DejaVu Sans, Arial, sans-serif" font-size="14" font-weight="normal" text-anchor="start" x="60" y="866">Сравнение не является энциклопедией; задача — показать место проекта на шкале скоростей.</text></svg>