<?xml version="1.0" encoding="utf-8" ?>
<svg baseProfile="full" height="900" version="1.1" viewBox="0 0 1600 900" width="1600" xmlns="http://www.w3.org/2000/svg" xmlns:ev="http://www.w3.org/2001/xml-events" xmlns:xlink="http://www.w3.org/1999/xlink"><defs><marker id="arrow" markerHeight="10" markerWidth="10" orient="auto" refX="10" refY="5"><path d="M 0 0 L 10 5 L 0 10 z" fill="#1f2937" /></marker><marker id="arrow_white" markerHeight="10" markerWidth="10" orient="auto" refX="10" refY="5"><path d="M 0 0 L 10 5 L 0 10 z" fill="#ffffff" /></marker><marker id="arrow_red" markerHeight="10" markerWidth="10" orient="auto" refX="10" refY="5"><path d="M 0 0 L 10 5 L 0 10 z" fill="#ef4444" /></marker><marker id="arrow_blue" markerHeight="10" markerWidth="10" orient="auto" refX="10" refY="5"><path d="M 0 0 L 10 5 L 0 10 z" fill="#2563eb" /></marker><marker id="arrow_green" markerHeight="10" markerWidth="10" orient="auto" refX="10" refY="5"><path d="M 0 0 L 10 5 L 0 10 z" fill="#22c55e" /></marker></defs><rect fill="#f6f8fc" height="900" width="1600" x="0" y="0" /><text fill="#1f2937" font-family="DejaVu Sans, Arial, sans-serif" font-size="38" font-weight="700" text-anchor="start" x="60" y="58">Рис. 7. Тормозная кривая ВСМ: где автоматика сильнее человека</text><text fill="#64748b" font-family="DejaVu Sans, Arial, sans-serif" font-size="18" font-weight="normal" text-anchor="start" x="60" y="96">ATP/ETCS-аналог контролирует скорость по безопасной кривой.</text><rect fill="#f9fbff" height="500" stroke="#d0d8e5" stroke-width="1.5" width="1030" x="150" y="200" /><line stroke="#dbe3ee" stroke-width="1" x1="356.0" x2="356.0" y1="200" y2="700" /><line stroke="#dbe3ee" stroke-width="1" x1="150" x2="1180" y1="300.0" y2="300.0" /><line stroke="#dbe3ee" stroke-width="1" x1="562.0" x2="562.0" y1="200" y2="700" /><line stroke="#dbe3ee" stroke-width="1" x1="150" x2="1180" y1="400.0" y2="400.0" /><line stroke="#dbe3ee" stroke-width="1" x1="768.0" x2="768.0" y1="200" y2="700" /><line stroke="#dbe3ee" stroke-width="1" x1="150" x2="1180" y1="500.0" y2="500.0" /><line stroke="#dbe3ee" stroke-width="1" x1="974.0" x2="974.0" y1="200" y2="700" /><line stroke="#dbe3ee" stroke-width="1" x1="150" x2="1180" y1="600.0" y2="600.0" /><line marker-end="url(#arrow)" stroke="#1f2937" stroke-width="3" x1="150" x2="1180" y1="700" y2="700" /><line marker-end="url(#arrow)" stroke="#1f2937" stroke-width="3" x1="150" x2="150" y1="700" y2="200" /><text fill="#1f2937" font-family="DejaVu Sans, Arial, sans-serif" font-size="18" x="95" y="185">скорость</text><text fill="#1f2937" font-family="DejaVu Sans, Arial, sans-serif" font-size="18" x="995" y="745">дистанция до цели</text><path d="M 195.0,285.0 L 201.0,285.1 L 206.9,285.3 L 212.9,285.4 L 218.9,285.5 L 224.9,285.7 L 230.8,285.8 L 236.8,285.9 L 242.8,286.1 L 248.8,286.2 L 254.7,286.3 L 260.7,286.5 L 266.7,286.6 L 272.7,286.7 L 278.6,286.9 L 284.6,287.0 L 290.6,287.2 L 296.5,287.3 L 302.5,287.4 L 308.5,287.6 L 314.5,287.7 L 320.4,287.8 L 326.4,288.0 L 332.4,288.1 L 338.4,288.3 L 344.3,288.4 L 350.3,288.5 L 356.3,288.7 L 362.2,288.8 L 368.2,289.0 L 374.2,289.1 L 380.2,289.3 L 386.1,289.4 L 392.1,289.6 L 398.1,289.8 L 404.1,289.9 L 410.0,290.1 L 416.0,290.3 L 422.0,290.4 L 428.0,290.6 L 433.9,290.8 L 439.9,291.0 L 445.9,291.2 L 451.8,291.4 L 457.8,291.6 L 463.8,291.8 L 469.8,292.0 L 475.7,292.3 L 481.7,292.5 L 487.7,292.8 L 493.7,293.0 L 499.6,293.3 L 505.6,293.6 L 511.6,293.9 L 517.6,294.2 L 523.5,294.5 L 529.5,294.8 L 535.5,295.2 L 541.4,295.6 L 547.4,295.9 L 553.4,296.3 L 559.4,296.8 L 565.3,297.2 L 571.3,297.6 L 577.3,298.1 L 583.3,298.6 L 589.2,299.1 L 595.2,299.7 L 601.2,300.3 L 607.1,300.9 L 613.1,301.5 L 619.1,302.1 L 625.1,302.8 L 631.0,303.5 L 637.0,304.3 L 643.0,305.1 L 649.0,305.9 L 654.9,306.8 L 660.9,307.7 L 666.9,308.6 L 672.9,309.6 L 678.8,310.6 L 684.8,311.7 L 690.8,312.8 L 696.7,313.9 L 702.7,315.1 L 708.7,316.4 L 714.7,317.7 L 720.6,319.1 L 726.6,320.5 L 732.6,322.0 L 738.6,323.6 L 744.5,325.2 L 750.5,326.8 L 756.5,328.6 L 762.4,330.4 L 768.4,332.3 L 774.4,334.3 L 780.4,336.3 L 786.3,338.4 L 792.3,340.6 L 798.3,342.9 L 804.3,345.3 L 810.2,347.8 L 816.2,350.3 L 822.2,353.0 L 828.2,355.7 L 834.1,358.6 L 840.1,361.5 L 846.1,364.6 L 852.0,367.7 L 858.0,371.0 L 864.0,374.4 L 870.0,377.9 L 875.9,381.6 L 881.9,385.3 L 887.9,389.2 L 893.9,393.3 L 899.8,397.4 L 905.8,401.7 L 911.8,406.1 L 917.8,410.7 L 923.7,415.5 L 929.7,420.3 L 935.7,425.4 L 941.6,430.6 L 947.6,436.0 L 953.6,441.5 L 959.6,447.2 L 965.5,453.1 L 971.5,459.2 L 977.5,465.4 L 983.5,471.9 L 989.4,478.5 L 995.4,485.4 L 1001.4,492.4 L 1007.3,499.6 L 1013.3,507.1 L 1019.3,514.8 L 1025.3,522.7 L 1031.2,530.8 L 1037.2,539.2 L 1043.2,547.8 L 1049.2,556.6 L 1055.1,565.7 L 1061.1,575.0 L 1067.1,584.6 L 1073.1,594.5 L 1079.0,604.6 L 1085.0,615.0" fill="none" stroke="#ef4444" stroke-width="4" /><path d="M 195.0,335.0 L 201.0,335.1 L 206.9,335.1 L 212.9,335.2 L 218.9,335.3 L 224.9,335.3 L 230.8,335.4 L 236.8,335.5 L 242.8,335.5 L 248.8,335.6 L 254.7,335.7 L 260.7,335.7 L 266.7,335.8 L 272.7,335.9 L 278.6,336.0 L 284.6,336.0 L 290.6,336.1 L 296.5,336.2 L 302.5,336.3 L 308.5,336.3 L 314.5,336.4 L 320.4,336.5 L 326.4,336.6 L 332.4,336.7 L 338.4,336.8 L 344.3,336.9 L 350.3,337.0 L 356.3,337.1 L 362.2,337.2 L 368.2,337.3 L 374.2,337.5 L 380.2,337.6 L 386.1,337.7 L 392.1,337.9 L 398.1,338.0 L 404.1,338.2 L 410.0,338.3 L 416.0,338.5 L 422.0,338.7 L 428.0,338.9 L 433.9,339.1 L 439.9,339.3 L 445.9,339.5 L 451.8,339.8 L 457.8,340.0 L 463.8,340.3 L 469.8,340.5 L 475.7,340.8 L 481.7,341.1 L 487.7,341.4 L 493.7,341.8 L 499.6,342.1 L 505.6,342.5 L 511.6,342.9 L 517.6,343.3 L 523.5,343.7 L 529.5,344.1 L 535.5,344.6 L 541.4,345.1 L 547.4,345.6 L 553.4,346.1 L 559.4,346.7 L 565.3,347.3 L 571.3,347.9 L 577.3,348.5 L 583.3,349.1 L 589.2,349.8 L 595.2,350.5 L 601.2,351.3 L 607.1,352.0 L 613.1,352.9 L 619.1,353.7 L 625.1,354.6 L 631.0,355.5 L 637.0,356.4 L 643.0,357.4 L 649.0,358.4 L 654.9,359.4 L 660.9,360.5 L 666.9,361.6 L 672.9,362.8 L 678.8,364.0 L 684.8,365.3 L 690.8,366.6 L 696.7,367.9 L 702.7,369.3 L 708.7,370.7 L 714.7,372.2 L 720.6,373.8 L 726.6,375.3 L 732.6,377.0 L 738.6,378.7 L 744.5,380.4 L 750.5,382.2 L 756.5,384.1 L 762.4,386.0 L 768.4,388.0 L 774.4,390.0 L 780.4,392.1 L 786.3,394.3 L 792.3,396.5 L 798.3,398.8 L 804.3,401.1 L 810.2,403.6 L 816.2,406.1 L 822.2,408.6 L 828.2,411.3 L 834.1,414.0 L 840.1,416.8 L 846.1,419.6 L 852.0,422.6 L 858.0,425.6 L 864.0,428.7 L 870.0,431.9 L 875.9,435.2 L 881.9,438.5 L 887.9,442.0 L 893.9,445.5 L 899.8,449.1 L 905.8,452.8 L 911.8,456.6 L 917.8,460.5 L 923.7,464.5 L 929.7,468.6 L 935.7,472.8 L 941.6,477.1 L 947.6,481.5 L 953.6,486.0 L 959.6,490.6 L 965.5,495.4 L 971.5,500.2 L 977.5,505.1 L 983.5,510.2 L 989.4,515.3 L 995.4,520.6 L 1001.4,526.0 L 1007.3,531.5 L 1013.3,537.2 L 1019.3,542.9 L 1025.3,548.8 L 1031.2,554.8 L 1037.2,561.0 L 1043.2,567.3 L 1049.2,573.7 L 1055.1,580.2 L 1061.1,586.9 L 1067.1,593.7 L 1073.1,600.7 L 1079.0,607.8 L 1085.0,615.0" fill="none" stroke="#2563eb" stroke-dasharray="12,9" stroke-width="4" /><path d="M 195.0,305.0 L 201.0,305.2 L 206.9,305.3 L 212.9,305.5 L 218.9,305.7 L 224.9,305.8 L 230.8,306.0 L 236.8,306.2 L 242.8,306.3 L 248.8,306.5 L 254.7,306.7 L 260.7,306.8 L 266.7,307.0 L 272.7,307.2 L 278.6,307.3 L 284.6,307.5 L 290.6,307.7 L 296.5,307.9 L 302.5,308.0 L 308.5,308.2 L 314.5,308.4 L 320.4,308.5 L 326.4,308.7 L 332.4,308.9 L 338.4,309.0 L 344.3,309.2 L 350.3,309.4 L 356.3,309.5 L 362.2,309.7 L 368.2,309.9 L 374.2,310.1 L 380.2,310.2 L 386.1,310.4 L 392.1,310.6 L 398.1,310.8 L 404.1,310.9 L 410.0,311.1 L 416.0,311.3 L 422.0,311.5 L 428.0,311.7 L 433.9,311.8 L 439.9,312.0 L 445.9,312.2 L 451.8,312.4 L 457.8,312.6 L 463.8,312.8 L 469.8,313.0 L 475.7,313.2 L 481.7,313.5 L 487.7,313.7 L 493.7,313.9 L 499.6,314.1 L 505.6,314.4 L 511.6,314.6 L 517.6,314.9 L 523.5,315.1 L 529.5,315.4 L 535.5,315.7 L 541.4,316.0 L 547.4,316.3 L 553.4,316.6 L 559.4,316.9 L 565.3,317.3 L 571.3,317.6 L 577.3,318.0 L 583.3,318.4 L 589.2,318.8 L 595.2,319.2 L 601.2,319.7 L 607.1,320.1 L 613.1,320.6 L 619.1,321.1 L 625.1,321.7 L 631.0,322.2 L 637.0,322.8 L 643.0,323.4 L 649.0,324.1 L 654.9,324.8 L 660.9,325.5 L 666.9,326.3 L 672.9,327.0 L 678.8,327.9 L 684.8,328.8 L 690.8,329.7 L 696.7,330.7 L 702.7,331.7 L 708.7,332.7 L 714.7,333.9 L 720.6,335.0 L 726.6,336.3 L 732.6,337.6 L 738.6,339.0 L 744.5,340.4 L 750.5,341.9 L 756.5,343.5 L 762.4,345.1 L 768.4,346.9 L 774.4,348.7 L 780.4,350.6 L 786.3,352.6 L 792.3,354.7 L 798.3,356.9 L 804.3,359.2 L 810.2,361.6 L 816.2,364.1 L 822.2,366.7 L 828.2,369.5 L 834.1,372.3 L 840.1,375.3 L 846.1,378.5 L 852.0,381.7 L 858.0,385.2 L 864.0,388.7 L 870.0,392.5 L 875.9,396.3 L 881.9,400.4 L 887.9,404.6 L 893.9,409.0 L 899.8,413.6 L 905.8,418.4 L 911.8,423.4 L 917.8,428.6 L 923.7,433.9 L 929.7,439.6 L 935.7,445.4 L 941.6,451.5 L 947.6,457.8 L 953.6,464.3 L 959.6,471.2 L 965.5,478.3 L 971.5,485.6 L 977.5,493.2 L 983.5,501.2 L 989.4,509.4 L 995.4,517.9 L 1001.4,526.8 L 1007.3,536.0 L 1013.3,545.5 L 1019.3,555.4 L 1025.3,565.6 L 1031.2,576.2 L 1037.2,587.2 L 1043.2,598.5 L 1049.2,610.3 L 1055.1,622.5 L 1061.1,635.1 L 1067.1,648.1 L 1073.1,661.6 L 1079.0,675.6 L 1085.0,690.0" fill="none" stroke="#22c55e" stroke-width="4" /><line stroke="#1f2937" stroke-dasharray="8,8" stroke-width="2" x1="1030" x2="1030" y1="240" y2="700" /><text fill="#1f2937" font-family="DejaVu Sans, Arial, sans-serif" font-size="16" text-anchor="end" x="1018" y="227">точка безопасной остановки</text><rect fill="#ffffff" height="150" rx="12" ry="12" stroke="#cbd5e1" stroke-width="1.4" width="310" x="1210" y="235" /><line stroke="#ef4444" stroke-dasharray="none" stroke-width="4" x1="1240" x2="1310" y1="270" y2="270" /><text fill="#1f2937" font-family="DejaVu Sans, Arial, sans-serif" font-size="16" x="1325" y="276">разрешённая скорость</text><line stroke="#2563eb" stroke-dasharray="12,9" stroke-width="4" x1="1240" x2="1310" y1="308" y2="308" /><text fill="#1f2937" font-family="DejaVu Sans, Arial, sans-serif" font-size="16" x="1325" y="314">фактическая скорость</text><line stroke="#22c55e" stroke-dasharray="none" stroke-width="4" x1="1240" x2="1310" y1="346" y2="346" /><text fill="#1f2937" font-family="DejaVu Sans, Arial, sans-serif" font-size="16" x="1325" y="352">аварийная тормозная кривая</text><text fill="#7a8799" font-family="DejaVu Sans, Arial, sans-serif" font-size="14" font-weight="normal" text-anchor="start" x="60" y="866">Если фактическая скорость пересекает безопасную кривую, автоматика должна вмешаться раньше человека.</text></svg>